<?xml version="1.0" encoding="utf-8"?>
<!-- Generator: Adobe Illustrator 25.2.3, SVG Export Plug-In . SVG Version: 6.00 Build 0)  -->
<svg version="1.1" id="Layer_1" xmlns="http://www.w3.org/2000/svg" xmlns:xlink="http://www.w3.org/1999/xlink" x="0px" y="0px"
	 viewBox="0 0 1546.2 970.2" style="enable-background:new 0 0 1546.2 970.2;" xml:space="preserve">
<style type="text/css">
	.st0{fill:none;stroke:#374151;stroke-width:7.8545;stroke-miterlimit:3.9273;}
	.st1{fill:none;stroke:#EF4444;stroke-width:1.9636;stroke-miterlimit:3.9273;}
	.st2{fill:none;stroke:#3B82F6;stroke-width:1.9636;stroke-miterlimit:3.9273;}
	.st3{fill:none;stroke:#FBBF24;stroke-width:1.9636;stroke-miterlimit:3.9273;}
</style>
<path vector-effect="non-scaling-stroke" class="st0" d="M553.8,229.8c33.1,66.5,62.6,135.2,94.3,202.3
	c10.4,22.1,20.3,45.5,32.4,66.8c8.4,18.6,18.4,39,33.4,53c12.7,15.3,36.2,19.2,55,15.7c17-3.5,32.4-12.8,47.1-21.6
	c22.6-14.8,46.4-28.8,68.7-44.2c109.6-74.3,28.3-133,83.5-218c23.9-38.6,68.9-63,113.9-65.8c20.8-3.1,43-0.7,63.8-2.9
	c25.2-1.9,50.4-7.8,74.6-14.7c40.7-12.9,80.1-31.8,118.8-49.1c21.6-12.8,50.5-18.2,61.8-42.2c11.3-26.8-0.1-51.1,37.3-60.9
	c13.9-3,27.4,2.6,40.3,5.9c13.1,3.3,26.3,4.4,39.3,3.9c18.3-4.3,27-25.2,10.8-39.3c-11.5-8.6-26.9-9.9-40.3-9.8
	c-232,7.4-465.2,4.3-697.1,7.9c-142.6,0.7-285,1.3-427.1,1c-18,0.6-31,14.7-28.5,32.4c8.3,16.1,16.1,35.2,3.9,51.1
	c-5.4,10.8-18.3,16.2-27.5,22.6c-17.6,11.7-37.3,20.6-53,34.4c-25.7,18.5-43.7,45.2-60.9,70.7c-28.2,42.3-48.9,88.7-66.8,135.5
	C76.8,503.5,30.4,647.6,17.8,796.4c-3.4,34-8.9,67.1-8.8,100.1c5.4,33.9,25.6,33.9,54,35.3c28.5,8.7,32,28.9,63.8,29.4
	c19.5-0.4,38.7-7.5,56-13.8c19.1-6.5,38.7-18.1,43.2-38.3c5.5-32.4-20.2-64.7-36.3-90.3c-17.1-28.5-34.3-57.1-50.1-85.4
	c-51.1-84.4-26-206.2,59-257.2c20.8-16.1,55.5-37.2,74.6-9.8c7.6,12.5,9.3,27.2,13.7,40.3c5.5,23.9,28.1,41.8,52.1,39.2
	c19.7-2.1,39.3-9.6,56-18.7c36.3-18.6,31.1-65.1,14.7-95.3c-18.3-40.2-46.7-74.9-66.8-112.9c-17.8-28.2-37.2-65-19.6-96.2
	c5.2-15.7,17.8-27.5,28.5-38.3c9.3-11,19-22,28.5-31.4c24.5-28.2,55.9-71,97.2-53.9c27.5,13.9,39.4,45.5,50.1,71.7
	C535.2,191.5,545.1,210.2,553.8,229.8z"/>
<path vector-effect="non-scaling-stroke" class="st1" d="M553.8,229.8c36.8,74.4,69.9,150.8,105.1,225.8
	c33.4,66.2,57,150.3,147.3,96.2c51-35.1,121-61,138.4-126.7c6-27.5,0.3-55.8,2-83.5c5.9-44.7,34.2-84.5,73.6-106
	c43.1-25.4,95-15.8,142.4-22.6c57.2-7.4,111.1-31.6,163-56"/>
<path vector-effect="non-scaling-stroke" class="st2" d="M1325.5,157.2c13.8-5.7,28-12.9,41.2-19.6c13.8-5.7,28.1-14.3,34.4-28.5
	c7-12.9,4-29.1,10.8-42.2c7.1-14,26.1-21.9,41.2-18.7c9.9-0.4,19.7,5.4,29.5,6.9c13,1.9,27.6,5.8,40.3,1
	c25.8-11.6,14.5-39.5-10.8-45.2c-16.4-3.3-33.5-1.6-50.1-1c-21.2,0.2-42.7,1-63.8,2c-339.9,2.8-680,6.3-1020.1,5.9
	c-26.5-2.9-51,10.8-39.3,40.3c22.2,34.2-7.9,57-36.3,71.7c-34,19.4-66.9,43-88.4,76.6c-42.5,57-70.3,123-94.3,189.5
	C70.6,521.3,31.8,652,18.7,786.5"/>
<path vector-effect="non-scaling-stroke" class="st3" d="M18.7,786.5c-2.9,23.6-4.8,48.2-7.9,71.7c-1.5,22-7.6,49.5,11.8,65.8
	c10,7.1,22.6,7.1,34.4,6.9c7.9,0.8,15.4,5,22.6,7.9c27.6,25.9,50.4,27.4,85.4,14.7c40.7-10.5,76.8-32.8,56-79.5
	c-10.3-26.9-29.2-49.7-43.2-74.6c-20.3-36.4-46.3-71.4-57.9-111.9c-12.5-44.4-6.5-93.1,10.8-135.5c20.2-41.9,57.3-73.5,98.2-94.3
	c22.2-11.8,47.1,0.4,51.1,25.5c7.8,30,16,61.2,53,62.8c14.6,0.9,28.9-4.8,42.2-9.8c24-6.5,46.5-25.9,47.1-52
	c1.2-33.5-17.5-63.6-34.4-91.3c-17.5-28.3-36.1-56.2-52-85.4c-19.7-31-28.5-66.4-5.9-98.2c18.2-23,39.2-44.1,58.9-65.8
	c12.8-16,27.6-31.6,45.2-42.2c19.6-9.2,46.4-7.7,59.9,10.8c16.6,15.8,25,38.1,33.4,58.9c7.6,19.9,17.8,39.4,26.5,58.9"/>
</svg>
