<?xml version="1.0" encoding="utf-8"?>
<!-- Generator: Adobe Illustrator 25.2.3, SVG Export Plug-In . SVG Version: 6.00 Build 0)  -->
<svg version="1.1" id="Layer_1" xmlns="http://www.w3.org/2000/svg" xmlns:xlink="http://www.w3.org/1999/xlink" x="0px" y="0px"
	 viewBox="0 0 806 957.7" style="enable-background:new 0 0 806 957.7;" xml:space="preserve">
<style type="text/css">
	.st0{fill:none;stroke:#374151;stroke-width:4.32;stroke-miterlimit:2.16;}
	.st1{fill:none;stroke:#EF4444;stroke-width:1.08;stroke-miterlimit:2.16;}
	.st2{fill:none;stroke:#3B82F6;stroke-width:1.08;stroke-miterlimit:2.16;}
	.st3{fill:none;stroke:#FBBF24;stroke-width:1.08;stroke-miterlimit:2.16;}
</style>
<path vector-effect="non-scaling-stroke" class="st0" d="M339.8,729.7c-40-38.1-80.3-76.5-119.9-115c-36-28.3-14.2-44-14.6-79.4
	c-0.2-35.8-34-55.2-57.2-77.2C93.1,407.6,44.4,349,9.9,282.6c-6.7-12,0.3-26.5,13.5-29.7c16-1.9,34.1,2.6,47.5-8.6
	c34.1-28.1-8.5-72.6,9.2-117.7c18.9-48.3,103.4-71.2,145.8-96.1c19.9-9.1,40.2-32.6,62.6-18.9c8.8,5.8,16.9,13,26.5,16.7
	c14.3,7.5,30.7,8.3,45.9,11.9c24.1,3.9,46.9,15.7,62.6,34c23.5,28.7,30.4,67,37.3,102.1c4.2,22.9,11.2,45.7,12.4,68.6
	c-2.5,21.8-31.5,18.5-46.4,50.8c-7.9,17-7.7,36.1-10.3,54c-8.3,52.2-5.6,108.5,22.1,154.4c18.6,30.7,45.3,56.1,72.4,78.3
	c22.6,20.8,40.5,29.6,70.7,21.6c25.7-4.6,51.4,6.7,69.7,23.3c32.8,25.9,63.8,55.2,88,88.6c19.4,30.4,27.4,65.5,38.9,98.3
	c5.4,17.4,10.7,34.2,16.2,50.8c5.2,14.9,7.5,31.8-4.9,43.2c-7.4,7.5-17.8,11.4-27,14.6c-10,4.5-20.2,8.5-29.7,12.4
	c-30.9,13.7-61,27.2-88-1.1c-15.9-14.9-36.9-97.8-62.1-87.4c-12.5,7.5-16.1,23.3-25.9,32.9c-32.2,27.7-64,1.5-86.4-23.8
	C425.9,813.9,383.7,771.2,339.8,729.7z"/>
<path vector-effect="non-scaling-stroke" class="st1" d="M339.8,729.7c-42.5-40.2-84.7-81.1-126.9-121.5
	c-43.7-40.7,38.9-70.9-53.5-139.9c-45.6-40.4-87.3-86.1-121-137.2c-8.1-12-15.5-24.8-22.7-37.3c-5.2-9.9-13.4-22.5-4.9-32.9
	c14.4-17.2,39.6-1.5,57.8-15.1c21-14,16.9-38.8,11.3-59.9c-3.5-14.8-5.7-30.7-3.2-45.9c2.2-24.3,20.8-41.2,40-54
	c25.2-16.5,52.7-29.4,80.5-41"/>
<path vector-effect="non-scaling-stroke" class="st2" d="M197.2,45c15.4-7.3,30.9-15.3,45.4-24.3c12.3-7.5,26.6-18.1,41.6-11.3
	c13.2,6.9,24.2,18.3,38.9,22.1c25,8.7,52.9,7.9,76.1,22.1c42.7,25,53.1,77.6,61.6,122.6c3.3,15,6.4,30.3,9.2,45.4
	c2,9.6,5.3,20,1.6,29.7c-4.6,10-16.1,13.2-24.3,19.4c-24.6,17.6-27.2,44.7-30.2,72.4c-12.9,81-1,153.2,62.1,210.6"/>
<path vector-effect="non-scaling-stroke" class="st3" d="M479.1,553.6c13.3,13.3,27.7,25.9,42.7,37.3c12.9,12.7,31,18,48.6,15.1
	c16.6-4.2,34-4.2,50.2,1.6c23.4,10.5,43.1,28.3,61.6,45.9c19.7,17.8,39,36.7,54.5,58.3c26.9,40.3,35.7,89.4,51.8,134.5
	c11.9,34.7,21.1,58.6-21.1,74.5c-26.6,9.1-51.6,24.3-79.4,29.7c-26.8,2-46.7-14.3-56.2-38.3c-8.7-19.1-17.2-38.8-29.2-56.2
	c-16.9-25.2-30.8-0.4-40,16.2c-5.8,7.6-12.9,13.8-22.1,16.7c-38.4,11.3-62.6-28.7-88-50.2c-37.7-36.2-75-73.2-112.9-109.1"/>
</svg>
