<?xml version="1.0" encoding="utf-8"?>
<!-- Generator: Adobe Illustrator 25.2.3, SVG Export Plug-In . SVG Version: 6.00 Build 0)  -->
<svg version="1.1" id="Layer_1" xmlns="http://www.w3.org/2000/svg" xmlns:xlink="http://www.w3.org/1999/xlink" x="0px" y="0px"
	 viewBox="0 0 1279 801" style="enable-background:new 0 0 1279 801;" xml:space="preserve">
<style type="text/css">
	.st0{fill:none;stroke:#374151;stroke-width:8;}
	.st1{fill:none;stroke:#EF4444;stroke-width:2;}
	.st2{fill:none;stroke:#3B82F6;stroke-width:2;}
	.st3{fill:none;stroke:#FBBF24;stroke-width:2;}
</style>
<path vector-effect="non-scaling-stroke" class="st0" d="M984,671c-96.7,28.8-194,56.8-291,85c-31,9.9-62.8,19-94,28
	c-31.7,12.5-55.5,10.9-78-17c-52.3-78.9-110.9-154.2-161-235c-46.9-75.7-81.3-158.4-125-236c-34.9-58.6-80.6-111.7-132-156
	c-22.1-21.7-44.4-42.9-67-63c-7.2-10.2-19.3-16.3-24-28C-0.4,26,24.8,14.7,44,14c47.6-7.7,96.6-5.6,144-1c107.4,4.4,214,23.9,320,38
	c84.8,14.8,171.1,11,256,14c48,0.5,53.6,47.9,29,80c-20.8,28.4-51.8,48.6-84,61c-69,30.5-138.2,12.2-208-1c-42.4-7.2-96-10-123,29
	c-48.7,66.2,10.7,129.8,42,187c39.6,67.4,112.3,84.6,163,19.9c62.7-80.6,151.9-87.8,246-89c82.9-4.1,165.4-6.2,247-11
	c48.1-3.5,105.5-8.6,137,34c22.4,25,30.5,59.1,42,89c10.4,31.1,24.8,68.3,4,97c-27.3,42-87.4,52.3-131,68
	C1079.7,643.8,1032.3,658.7,984,671z"/>
<path vector-effect="non-scaling-stroke" class="st1" d="M984,671c-96.7,28.8-194,56.8-291,85c-29,8.9-58.7,18.4-88,26
	c-20.4,6.9-44,16.1-64,3c-16.2-9.6-25.1-26.6-36-41c-12.6-20.1-27.4-39.4-41-59c-40.8-59.9-84.7-118-121-181
	c-62.7-112.5-107.2-237.7-202-329"/>
<path vector-effect="non-scaling-stroke" class="st2" d="M141,175c-29.2-27.5-59.5-55.1-88-83C37.8,76.6-8.9,45.1,16,23
	c13.2-10.7,33-8.2,49-12c34.8-3.6,70.1-1.5,105,0c73.6,5.6,147.9,10.9,221,24c82.7,9.5,164.7,26.4,248,28c30.8-0.6,62.2,1.4,93,1
	c19.7,0.5,41.1-1.7,59,8c18.7,13.2,20.2,38.6,11,58c-31.8,58.4-100.5,86.3-164,93c-58,2.8-113.7-18-171-22c-26.6-1.3-55,1.2-76,19
	c-24.3,19.4-35,53.7-30,84c6.8,39.4,33.2,72.2,53,106"/>
<path vector-effect="non-scaling-stroke" class="st3" d="M414,410c25.6,50.1,74.8,89.8,132,63c25-13.5,40.4-37.4,60-57
	c40.7-40.9,98-55.9,154-61c93.8-5.2,188.1-7.4,282-12c96.4-5.8,162.2-21.8,201,87c19.3,58.3,53.2,116.4-12,159
	c-32,18.4-67.8,28.9-103,40c-47.7,14.6-95.8,29.7-144,42"/>
</svg>
