<?xml version="1.0" encoding="utf-8"?>
<!-- Generator: Adobe Illustrator 25.2.3, SVG Export Plug-In . SVG Version: 6.00 Build 0)  -->
<svg version="1.1" id="Layer_1" xmlns="http://www.w3.org/2000/svg" xmlns:xlink="http://www.w3.org/1999/xlink" x="0px" y="0px"
	 viewBox="0 0 687.9 1004.4" style="enable-background:new 0 0 687.9 1004.4;" xml:space="preserve">
<style type="text/css">
	.st0{fill:none;stroke:#374151;stroke-width:6.6462;stroke-miterlimit:3.3231;}
	.st1{fill:none;stroke:#EF4444;stroke-width:1.6615;stroke-miterlimit:3.3231;}
	.st2{fill:none;stroke:#3B82F6;stroke-width:1.6615;stroke-miterlimit:3.3231;}
	.st3{fill:none;stroke:#FBBF24;stroke-width:1.6615;stroke-miterlimit:3.3231;}
</style>
<path vector-effect="non-scaling-stroke" class="st0" d="M21.6,617.3c6.8-135,11.8-270.3,17.4-405.4c1.7-41.7,3.7-83.8,5-125.4
	C46,65,43.4,42.6,49,21.6c3.7-12.8,18.5-17.2,29.1-9.1c9.2,9.2,17,20.3,27.4,28.2c13.9,9.4,31.8,13.6,48.2,9.1
	c16.1-2.3,31.5-10,47.4-14.1c32.8-7.6,66.2,0.8,98.9,5.8c83.6,16.7,167.7,32.1,251.7,47.4c26.7,5.2,53.8,10.3,80.6,15
	c37,5.2,58.9,21.1,41.5,60.6c-7.5,19.1-27.4,28-43.2,39c-17,9.4-32,22.8-45.7,36.6c-14.8,16.4-31.3,32.7-41.5,52.3
	c-12.1,18.3-19.9,40.3-39,52.3c-43.9,29.4-71.8-8.7-123.8,24.9c-19.8,13.6-34.6,32.7-47.4,52.3c-13.6,20.1-44.7,92.3-73.9,76.4
	c-23.6-15.1-12.7-46.1-8.3-68.1c6.2-26.6,13.9-53.1,17.4-79.8c8.1-49.4,25.8-100.9,10-149.5c-8.1-21.1-30.5-57.1-56.5-45.7
	c-11.1,11-10.1,28.5-12.5,42.4c-8.3,62.6-11.9,125.7-14.1,188.6c-3.1,77.7-5.5,155.5-10,232.6c-1.8,20.8-2.3,42-3.3,62.3
	c-2.3,21.5-1.9,46.9,15.8,61.5c34.4,27.1,85.6,10.2,111.3-20.8c30.1-37.5,32.3-92.2,70.6-123c42.7-39,103.2-33.7,151.2-9.1
	c25,12,53.3,23.3,69,46.6c16,23.6,10.1,53.8-10.9,71.4c-21.2,16.5-46.8,25.5-69,39c-54.7,29.8-108.8,60.4-162.8,89.7
	c-68.1,38.2-136.2,76.1-203.5,113.8c-18.5,9.5-35.9,20.2-53.2,29.9c-15.6,8.8-31.9,19.3-49.8,14.9c-59.3-18.6-39.3-119.6-39.8-167
	C14.5,757.4,15.3,687.5,21.6,617.3z"/>
<path vector-effect="non-scaling-stroke" class="st1" d="M21.6,617.3c9.9-193.7,15.9-388,24.9-581.5C45.3,20.6,58.2,0.6,74.8,10.8
	c10.6,6.3,17,18.7,26.6,26.6C116.6,51,137.7,53.6,157,49.9c24.2-7.6,48.1-17.7,73.9-17.4c44.1,3,88.1,12.7,131.3,21.6
	c71.7,13.2,143.5,26.4,215.2,39.9c20.6,3.8,41.7,7.5,62.3,11.6c34.1,3.9,49.5,26.8,34.1,59c-10.1,23.7-37,33-56.5,47.4
	c-26,19.2-47.7,43.5-67.3,69"/>
<path vector-effect="non-scaling-stroke" class="st2" d="M550,280.8c-20.9,34.8-34.2,72.3-80.6,76.4c-17.5,0-35-5.1-52.3-1.7
	c-38.7,5.9-66.7,37.6-85.6,69.8c-14.5,22.8-26.1,48.1-45.7,67.3c-16.1,17.2-38.1,4.4-40.7-16.6c-3-18.9,5.4-38,8.3-56.5
	c9.7-35.5,15.7-71.8,22.4-108c10.4-50.5,20.3-116-26.6-151.2c-7.4-7.5-22.2-11.1-29.9-2.5c-7.2,9.6-7.3,22-9.1,33.2
	c-3,20.4-5.1,41-6.6,61.5c-8.4,80.2-8.8,161.7-12.5,242.6c-1.5,48.7-4.2,97.6-7.5,146.2c1.6,31.6-12,69.3,9.1,96.4
	C227,773.6,290.3,753,314,714.5c20.7-27.5,25.3-63.4,44.9-91.4c41.5-63.4,115.1-63.9,177-30.7"/>
<path vector-effect="non-scaling-stroke" class="st3" d="M535.9,592.4c25.8,12.2,59.2,25.8,69,54.8c7.8,16.2,4.4,35.7-5.8,49.8
	c-15.8,20.8-41.8,28.5-63.1,41.5c-56.4,29.6-111.7,61.9-167.8,92.2c-69.6,38.3-138.8,77.8-208.5,116.3c-19.7,10.6-39.6,22.1-59,33.2
	c-14.1,7.8-28.7,17.6-45.7,15.8c-64-13.4-43.7-119.6-44-167.8c3.6-70.2,4.5-140.9,10.8-211"/>
</svg>
