<?xml version="1.0" encoding="utf-8"?>
<!-- Generator: Adobe Illustrator 25.2.3, SVG Export Plug-In . SVG Version: 6.00 Build 0)  -->
<svg version="1.1" id="Layer_1" xmlns="http://www.w3.org/2000/svg" xmlns:xlink="http://www.w3.org/1999/xlink" x="0px" y="0px"
	 viewBox="0 0 629.8 1000.5" style="enable-background:new 0 0 629.8 1000.5;" xml:space="preserve">
<style type="text/css">
	.st0{fill:none;stroke:#374151;stroke-width:3.8919;stroke-miterlimit:1.9459;}
	.st1{fill:none;stroke:#EF4444;stroke-width:0.973;stroke-miterlimit:1.9459;}
	.st2{fill:none;stroke:#3B82F6;stroke-width:0.973;stroke-miterlimit:1.9459;}
	.st3{fill:none;stroke:#FBBF24;stroke-width:0.973;stroke-miterlimit:1.9459;}
</style>
<path vector-effect="non-scaling-stroke" class="st0" d="M197.6,167c-21.7-33.2-42.4-67-64.2-100.2c-5.7-8.3-10.5-17.8-16.5-25.8
	c-4.2-8.6-13.6-16.9-9.7-27.2c6.2-10.8,17.4-6.2,26.8-1.9c9.1,4.9,18.5,9.7,27.7,14.6c31.1,17.7,64,34.2,89.5,59.8
	c31.3,29.2,56.8,64.6,88.5,93.4c48.9,38.7,59.8,38.5,77.8,102.6c19.2,47.5,58.3,83.6,81.7,128.9c16.6,32.4,24.6,68.2,37,102.2
	c25.6,68.7,47.7,139.3,70.5,208.7c3.9,10.7,6.8,21.9,10.7,32.1c3,10.1,6.9,20.5,4.4,30.6c-1.9,11.9-12.2,18.9-19,27.7
	c-6.2,8.9-6.8,20.1-4.9,30.2c3.5,10,8.7,19.3,10.2,29.7c1.1,14.8-4.8,30-16.1,39.4c-20.6,18.9-45.1,33.5-66.7,51.1
	c-14.2,10.3-27.2,22.9-43.3,29.2c-11.1,3.6-26.7,1.5-32.1-9.7c-10.3-21.5,12-37.5,28.7-45.2c43.2-19.8,42-47.4,22.8-85.6
	c-9.3-21.3-16.3-43.9-19.9-66.6c-5.2-23.1-9.3-46.5-14.6-69.1c-4-17.5-6.7-36.2-19-49.6c-27.4-33.7-82.7-29.2-111.4,0
	c-20.5,19.3-28.4,47.2-36,73c-7.7,26.9-16.6,53.6-26.3,79.3c-5.6,21.8-24.2,42.7-48.2,37.4c-7.4-0.8-13.6-5-19.9-7.8
	c-8.2-3.4-17.4-4.9-25.8-3.4c-30.6,4.3-40.7,36.9-52,60.8c-17.4,38.4-36.3,59.7-76.9,31.1c-20.3-13.4-41.1-29.9-43.8-55.5
	c-6.3-54.3,41.8-109,79.8-142.5c23.5-20.6,51.9-33.8,78.3-49.1c52.9-27.7,85.8-69.9,106-125c18.5-42.9,13.8-77.4-7.8-117.2
	c-16.9-36.3-32.5-73.4-38.4-112.9c-2.6-17.5-5.1-34.9-6.8-52.1c-1.7-9.4-2.4-23.4,8.8-26.3c4.6-1.8,9.7-0.2,14.1-1.9
	c18.1-13.1-9.6-35.3-17.5-46.7C214.7,194.3,205.8,180.8,197.6,167z"/>
<path vector-effect="non-scaling-stroke" class="st1" d="M197.6,167c-29.5-46.3-59.8-92.5-88.5-139.1c-5.7-7.5-2.5-19.6,7.3-20.9
	c9.8-0.2,18.8,5.8,27.2,10.2c29.1,14.3,57.4,31.3,84.6,49.1C266.5,95.9,295,135.6,329,169.4c20.1,22.6,50.5,34.1,67.1,59.8
	c15.5,21.5,16.7,49.5,30.2,72c20.8,37.3,50.6,69,71,106.5c18.2,33,26,70.4,38.9,105.6c24.4,66.1,46.2,133.3,67.6,200.4"/>
<path vector-effect="non-scaling-stroke" class="st2" d="M603.9,713.8c5,13.1,8.7,27.2,13.6,40.4c5,14.2,8.6,31-1.5,43.8
	c-7.5,8.5-17.8,16.6-18.5,28.7c-4.2,24.8,21.2,41.8,6.3,69.1c-5.6,14.2-19.1,22.7-30.6,31.6c-11.3,7.7-21.9,16.5-33.1,24.3
	c-18,11.9-47.9,43.2-68.6,41.8c-15.5,1.6-28.1-13.9-22.9-28.7c3.7-11.3,13.4-19.3,23.8-24.3c23.9-10.4,48.8-29,40.9-58.4
	c-7.8-26.6-22.7-51.1-27.7-78.8c-6-26.4-11.2-53.2-16.5-79.8c-4.6-16.6-6.1-34.7-15.1-49.6c-26.9-44.4-94.9-38.9-124.5,0
	c-16.8,20.8-23.6,47.3-30.6,72.5c-9,28.4-18,57.1-29.2,84.6c-6.5,13.8-19.9,26.2-36,25.3c-26.3-0.3-33.9-22.2-66.6-7.3
	c-22.4,11.8-29.4,38.5-39.9,59.8c-18.6,39.1-38.1,55-77.4,26.3"/>
<path vector-effect="non-scaling-stroke" class="st3" d="M47.3,933.2c-86.6-48.8-13.1-150.1,40.4-194.6
	c23.3-20.5,51.7-33.7,78.3-49.1c56-29.2,88.5-74,109-132.8c17.8-45.7,6.3-75.8-14.1-117.2c-15.8-33.5-29.4-68.3-35-105.1
	c-2.6-17.2-5.1-34.8-6.8-52.1c-1.6-9.1-2.6-23.4,8.8-26.3c4.5-1.7,9.6-0.3,14.1-1.9c18.1-13.3-9.4-35-17.5-46.7
	c-9.6-12.9-18.6-26.6-26.8-40.4"/>
</svg>
