<?xml version="1.0" encoding="utf-8"?>
<!-- Generator: Adobe Illustrator 25.2.3, SVG Export Plug-In . SVG Version: 6.00 Build 0)  -->
<svg version="1.1" id="Layer_1" xmlns="http://www.w3.org/2000/svg" xmlns:xlink="http://www.w3.org/1999/xlink" x="0px" y="0px"
	 viewBox="0 0 369.8 1022" style="enable-background:new 0 0 369.8 1022;" xml:space="preserve">
<style type="text/css">
	.st0{fill:none;stroke:#374151;stroke-width:4.2146;stroke-miterlimit:2.1073;}
	.st1{fill:none;stroke:#EF4444;stroke-width:1.0537;stroke-miterlimit:2.1073;}
	.st2{fill:none;stroke:#3B82F6;stroke-width:1.0537;stroke-miterlimit:2.1073;}
	.st3{fill:none;stroke:#FBBF24;stroke-width:1.0537;stroke-miterlimit:2.1073;}
</style>
<path vector-effect="non-scaling-stroke" class="st0" d="M335.3,835.8c4.5,28.7,3.4,57.8-1.1,86.4c-0.2,15.9-8.5,33.8,2.1,47.9
	c7.2,12.2,31.1,13.5,25.8,31.6c-16.7,28.8-60.7,3.1-83.2-5.8c-24.6-13.1-45.6-31.7-66.4-50.1c-21.5-19.5-8.1-37.3-16.3-60.6
	c-18.3-40.5-73.1-55.6-80.6-102.7c-3.7-18.9-1.2-38.6-1.1-57.4c0.6-12,3.8-26.9-4.7-36.3c-12.4-15.5-32.5-2.9-49-18.4
	c-18.2-13.7-19.6-38.1-21.6-58.5c-2.8-26-3.7-52.2-3.7-78C35.1,471,44.5,408.3,64,349c11.8-23.9,37.1-16.2,51.1-46.4
	c10.8-26.9,15.2-56.1,20-84.3c6.1-31.7,12.5-63.9,10.5-95.9c-1.2-25-6.9-49.4-12.1-73.3c-1.6-11.4-7.2-22.2-5.2-33.2
	c4.1-13.9,19.2-10.1,22.1,2.7c5.4,19.1,4,39.5,10.5,57.9c28,77.2,64,151.8,81.1,231.8c15.8,68.9,30.6,137.6,44.8,206
	c3.9,18.9,7.5,37.2,11.6,55.3c1.9,11.1,5.9,22.5,3.1,33.2c-3.5,10.4-11.4,19.1-11.6,30c-2,22.2,9.4,42.9,13.2,63.7
	C316.1,743,326.1,789,335.3,835.8z"/>
<path vector-effect="non-scaling-stroke" class="st1" d="M335.3,835.8c4.4,27.6,3.3,55.7-0.5,83.2c-0.4,15.5-8.2,32.9-0.5,47.4
	c4.8,14.8,29.3,14.5,28.5,31.6c-7.9,34.7-66.7,6.3-86.4-3.7c-24.7-13.7-46.8-32.4-66.9-52.2c-9.7-8.8-10.8-21.9-10-34.2
	c2.6-61.8-86-69.5-85.3-140.1"/>
<path vector-effect="non-scaling-stroke" class="st2" d="M114.1,767.8c-1.7-17.1,1.1-34.5,1.1-51.6c3.7-22.9-7.7-38.5-31.6-36.4
	c-50.9-7.4-42.9-70.6-47.4-109.1c-3.1-71.1,3.5-142.5,24.2-210.7c6-33.1,35.9-25.8,50.6-50.6c7.5-9.9,9.5-22.7,13.2-34.2
	c3.7-17.6,7.9-35.4,10.5-53.2c6.7-35.8,14-72,10.5-108.5"/>
<path vector-effect="non-scaling-stroke" class="st3" d="M145.1,113.5c-2.3-24.2-8.1-47.9-13.2-71.6c-1.7-8.4-5.5-17.3-3.7-25.8
	c1.7-9.1,13.4-12.3,19-4.2c7.6,13.8,6.4,30.3,9,45.3c3.3,18.7,10.8,36.1,17.4,53.7c17.1,41.8,33.9,83.9,49,126.4
	c12.3,40.3,22.7,81.5,31.1,122.8c13.1,58.8,25.7,118,37.9,177c2.2,12.8,5.6,25.7,7.9,38.5c2.1,8.9,4.3,18.3,2.1,27.4
	c-2.2,8.6-9.6,15.5-10.5,24.8c-3.8,11.5,0.2,23.4,2.6,34.8c4.2,13,7.5,26.7,11.1,40c12.1,43.8,21.8,88.6,30.6,133.3"/>
</svg>
