<?xml version="1.0" encoding="utf-8"?>
<!-- Generator: Adobe Illustrator 25.2.3, SVG Export Plug-In . SVG Version: 6.00 Build 0)  -->
<svg version="1.1" id="Layer_1" xmlns="http://www.w3.org/2000/svg" xmlns:xlink="http://www.w3.org/1999/xlink" x="0px" y="0px"
	 viewBox="0 0 1034.3 908.1" style="enable-background:new 0 0 1034.3 908.1;" xml:space="preserve">
<style type="text/css">
	.st0{fill:none;stroke:#374151;stroke-width:6.6462;stroke-miterlimit:3.3231;}
	.st1{fill:none;stroke:#EF4444;stroke-width:1.6615;stroke-miterlimit:3.3231;}
	.st2{fill:none;stroke:#3B82F6;stroke-width:1.6615;stroke-miterlimit:3.3231;}
	.st3{fill:none;stroke:#FBBF24;stroke-width:1.6615;stroke-miterlimit:3.3231;}
</style>
<path vector-effect="non-scaling-stroke" class="st0" d="M602.3,729.4c-94.2,21.7-187.9,46.1-282.5,66.5
	c-46.6,10.2-93.8,29.1-142.1,24.9c-34.4-5.3-64.5-32.2-71.4-66.5c-3.4-18.8,1.5-39.9,15.8-53.2c17.3-15.9,46.7-14.6,55.7,9.1
	c5,14.2-3,29,0,43.2c3,16.3,22.8,29.6,37.4,18.3c46.1-32.3,12.9-96.9-17.4-128.8c-44.7-49-92.4-96.2-128.8-152
	c-21.4-38.3-35.4-81.2-49.9-122.1C14,355,6.9,341.4,8.3,326.5c3.4-25.7,35.7-19.4,49.9-6.6C82.9,338.2,98.1,367,113,393
	c25.2,43.7,42,93.3,76.4,130.4c29.3,30.6,77.2,36.6,115.5,22.4c35.5-14.2,60.1-44.8,72.3-79.8c9.7-25.1,25-49.8,50.7-59.8
	c30.6-10,66.2,2.6,83.1,29.9c11.9,18.2,14.5,42.2,31.6,56.5c24.1,21.7,57.4-4.3,66.5-28.3c9.1-21.1,5.7-44.5-3.3-64.8
	c-29.4-50-60.4-99.2-89.7-148.7c-18.9-30.4-37.8-61.2-55.7-91.4c-11.8-17.9-19.3-39.2-36.6-51.5c-31-14.9-38.4,43.9-81.4,21.6
	c-31.4-17.8-32.7-62-12.4-88.1c19.8-26.9,56-38.4,87.2-30.7c53.2,11.9,81.3,66,108.8,107.2c27.8,41,54.5,82.8,80.6,123.8
	c105.2,158.1,206.2,318.9,313.2,474.4c26.2,38.2,50.7,76.8,75.6,114.6c10.8,18.2,26.3,33.6,30.7,54c0.6,15.1-19.3,17.9-29.1,11.6
	c-29.6-15.5-47.4-45.1-64.8-71.5c-29.4-42.4-54.9-87.4-86.4-127.1c-27.9-32.4-58.6-19.7-93.1-11.6
	C701.8,699,652.7,716.3,602.3,729.4z"/>
<path vector-effect="non-scaling-stroke" class="st1" d="M602.3,729.4c-91.7,21.1-183,44.9-275,64.8c-45.9,9.8-91.4,27.1-138.7,27.4
	c-33.9-0.2-63.8-22.4-78.1-52.3C101.1,745,104,711.8,128,697c17.8-13,45.8-6.1,50.7,16.6c3.3,13.2-3.8,26.8-0.8,39.9
	c5.5,23.1,29.9,30,45.7,11.6c11.7-11,15.2-27.7,14.1-43.2c-4.4-44.3-37.6-77.7-67.3-108c-44.8-52.1-98.5-100.6-122.1-167"/>
<path vector-effect="non-scaling-stroke" class="st2" d="M48.2,447c-10.2-25.7-20.6-51.8-29.1-78.1c-7.4-18-23.1-53.8,5.8-59.8
	c52.2-4.5,89.9,91,112.2,129.6c23.5,49.3,53,109.7,114.6,113.8c38.9,5.1,78.9-13.5,103-44c24.9-32.3,28.3-83.1,69.8-100.5
	c23.9-10.6,53.4-4.1,73.1,12.5c26.5,20.8,23.1,66.1,56.5,78.9c16.9,6.1,32.3-5.8,44-16.6c16.6-21.1,21.6-50.9,10-75.6
	c-10-26.4-29.2-49-42.4-73.9c-24.9-40.5-49.6-81.2-73.9-122.1"/>
<path vector-effect="non-scaling-stroke" class="st3" d="M491.8,211c-14.7-21.6-27.5-44.8-40.7-67.3c-10.5-16.1-25.5-50.3-49-34.1
	c-11.1,5.3-17.2,19-29.9,22.4c-26.2,10.5-52.1-15.7-55.7-40.7c-5.7-49.1,39.8-85.6,86.4-83.1c39.3,2.7,69,30.8,90.6,61.5
	c159.4,238.3,312.6,481.6,474.4,718.6c11.8,18.2,23.5,36.9,35.7,54.8c7.4,12.3,18.3,23.8,21.6,38.2c4.1,10.7-7.3,19.4-17.4,18.3
	c-14.1-2.2-25.5-12.4-35.7-21.6c-40-44.9-68.1-99.7-103-148.7c-29.9-45.6-49-64.1-104.7-45.7c-54.7,12-107.8,31.8-162,45.7"/>
</svg>
