<?xml version="1.0" encoding="utf-8"?>
<!-- Generator: Adobe Illustrator 25.2.3, SVG Export Plug-In . SVG Version: 6.00 Build 0)  -->
<svg version="1.1" id="Layer_1" xmlns="http://www.w3.org/2000/svg" xmlns:xlink="http://www.w3.org/1999/xlink" x="0px" y="0px"
	 viewBox="0 0 1744.6 1014.7" style="enable-background:new 0 0 1744.6 1014.7;" xml:space="preserve">
<style type="text/css">
	.st0{fill:none;stroke:#374151;stroke-width:6.5455;stroke-miterlimit:3.2727;}
	.st1{fill:none;stroke:#EF4444;stroke-width:1.6364;stroke-miterlimit:3.2727;}
	.st2{fill:none;stroke:#3B82F6;stroke-width:1.6364;stroke-miterlimit:3.2727;}
	.st3{fill:none;stroke:#FBBF24;stroke-width:1.6364;stroke-miterlimit:3.2727;}
</style>
<path vector-effect="non-scaling-stroke" class="st0" d="M896.8,567.9c-59.1-41.3-116.7-85.1-175.1-127.6
	c-21.6-16.9-44.3-33.7-67.1-49.1c-14.8-10.5-30.2-22.4-48.3-26.2c-53.6-9.4-61.8,41.2-118.6,31.9c-36.7-6-65.9-32.4-93.3-55.6
	c-30.4-24.5-61.7-49.2-96.5-67.1c-48.7-27.5-104.3-40.7-151.4-71.2c-14.4-7.4-25.3-21.9-31.1-36.8c-3.3-11.4-2.1-23.8-4.9-35.2
	c-1.3-18.4-19.7-32.6-37.6-31.9c-19.1-0.6-40.2,7.3-56.5-6.5C5.5,81.9,8.1,65,12.4,51.6c4.9-18.6,18.2-33.9,36-40.9
	c26.1-8.3,53.4,5.8,72.8,22.1c16,15.8,23.3,36.8,31.9,56.5c18.7,43.8,62.9,66.8,105.6,80.2c173,54.7,344.8,113.9,516.3,171.8
	c70.3,21.8,138.3,50.3,208.6,69.5c42.7,6.9,46-23.4,76.9-31.1c23-2.2,37.6,17.7,49.9,33.6c11.8,14.3,26.8,25.7,40.9,36.8
	c70.8,43,153.1,62.4,229.9,89.2c59.6,18.3,118.2,38.4,176.7,56.5c44,15.2,92.8,24.4,124.4,59.7c46.3,44.6,53.8,111,52.3,171
	c-0.6,35.3,6.3,71.2-2.5,104.7c-12.2,63.7-91.4,105.7-135.8,48.2c-30.5-41.4,4.1-91.8,34.4-121.1c25.4-30.1,54.6-71.9,38.4-111.3
	c-8.9-16.6-28.5-24.5-45.8-22.9c-17.4,2.5-31.4,12.3-45.8,19.6c-24.7,12.4-52.6,19.9-79.4,21.3c-77.6,4.6-108.8-37.9-167.7-72.8
	c-57.8-25-98,10.2-85.1,69.6c1.7,18.7-8.2,40.4-29.5,34.3c-13-4.7-22.9-14.8-33.5-22.1c-22.9-16.5-45.5-34.1-67.9-49.9
	C1042.1,671,969.8,619.4,896.8,567.9z"/>
<path vector-effect="non-scaling-stroke" class="st1" d="M896.8,567.9c-75.5-52.9-149-109.1-223.4-163.6
	c-33.4-23.9-68.6-55.2-111.3-32.7c-14.4,9.8-28.8,22.1-46.6,24.5c-49.9,10.3-90.8-29.6-126-58.9c-29-22.9-58.6-46.2-91.6-63
	c-52.6-30.3-115.5-42.5-163.6-80.2c-23.4-19.8-19.8-42.2-24.5-68.7c-5.1-14.7-18-25.1-33.5-26.2c-13.7-0.6-27.2,2.4-40.9,1.6
	C5.6,96.4,4.6,70.3,14,46.7"/>
<path vector-effect="non-scaling-stroke" class="st2" d="M14,46.7C33.2-6.1,91.8,1.2,124.5,36.9c13.1,13,19.6,30.7,26.2,47.5
	c6.9,16.2,17.2,30.8,29.5,43.4c27.4,26.1,64.1,36.6,99,48.3c41.7,13.3,83.9,26.3,125.2,40.9c128.8,41.8,257,86.1,385.4,129.3
	c55.4,17.7,110,38.7,165.3,56.5c21.2,7.6,45.2,14.3,66.3,2.5c10.5-7.3,19.3-17.8,31.1-22.9c17.2-7.5,36.4,3.1,46.6,17.2
	c30.3,41,74.9,68.5,122.7,85.1c45.7,18.6,93,33,139.9,48.3"/>
<path vector-effect="non-scaling-stroke" class="st3" d="M1361.5,532.7c62.9,20,125.8,41,189,60.5c34.2,12.9,72.2,19.1,103.1,39.3
	c37.5,22.3,64.3,63.2,73.6,105.5c9.5,36.2,5.8,74.3,8.2,111.3c2.7,53,4.1,117-49.1,146.5c-60.1,34.9-123.8-21.9-94.1-85.9
	c15.2-34.7,49-56.4,66.3-90c10.5-20.4,20.2-44.1,13.1-67.1c-6.9-19.4-28.1-30.7-48.3-28.6c-18.6,2.9-33.8,13.4-49.9,22.1
	c-31,12.8-65,22.3-99,18c-87.7-0.1-127.3-100.4-201.3-76.1c-21.3,8.5-29.2,28.5-30.3,49.9c0.3,17.2,7.4,37.7-4.9,52.4
	c-15.4,16.2-35.8-1.1-49.1-11.5c-16.8-12.1-33.1-24.8-49.9-36.8c-79.9-59-161-117-242.2-174.3"/>
</svg>
