<?xml version="1.0" encoding="utf-8"?>
<!-- Generator: Adobe Illustrator 25.2.3, SVG Export Plug-In . SVG Version: 6.00 Build 0)  -->
<svg version="1.1" id="Layer_1" xmlns="http://www.w3.org/2000/svg" xmlns:xlink="http://www.w3.org/1999/xlink" x="0px" y="0px"
	 viewBox="0 0 587 995.6" style="enable-background:new 0 0 587 995.6;" xml:space="preserve">
<style type="text/css">
	.st0{fill:none;stroke:#374151;stroke-width:4.5474;stroke-miterlimit:2.2737;}
	.st1{fill:none;stroke:#EF4444;stroke-width:1.1368;stroke-miterlimit:2.2737;}
	.st2{fill:none;stroke:#3B82F6;stroke-width:1.1368;stroke-miterlimit:2.2737;}
	.st3{fill:none;stroke:#FBBF24;stroke-width:1.1368;stroke-miterlimit:2.2737;}
</style>
<path vector-effect="non-scaling-stroke" class="st0" d="M33.4,695.6c26.3-36.9,53-73.6,79.6-110.3c22.7-30.1,40.8-70.2,79-83
	c42.6-15.4,79.3,9.8,122.2-8.5c25.7-11.2,43.3-34.1,64.2-51.7c14.7-15.4,38.7-34.7,57.4-14.2c13.9,14.7,1.8,44,22.7,53.4
	c32,9.4,39.3-46.8,38.1-68.8c-1-31.9-21.9-58.3-46-77.3c-54.2-45.2-109-90.3-162-137c-24.3-19.8-46.2-43.9-72.8-60.3
	c-17.6-8.4-42.4-9.6-55.1,6.8c-14.8,15.4-7.2,39.3-17.1,56.8c-10.6,18-34.8,17.7-45.5,0.5c-9.1-12.2-7.1-28.8-2.3-42.1
	c18.4-43.7,45.5-87.6,88.1-110.3c36.9-19.3,79.4-21.7,119.4-28.4c27.7-4.9,56.1-6.6,83.6-10.2c31-4.7,64.3-7.5,90.9,11.4
	c64.9,43.6,44.2,182.2,62,252.9c10.1,39,34.5,70.1,22.2,112c-5.4,19.5-13.5,39.8-6.2,59.7c6.6,23.6,27.5,39.6,23.9,65.9
	c-3.6,38.9-42.5,48.8-64.8,74.5c-18.1,21.5-31.7,46.5-43.8,71.1c-34.5,72.2-66.8,145.2-102.3,216c-13.5,24.9-26.2,49.9-41.5,72.8
	c-15.1,28-44.4,49.1-76.2,38.6c-37.1-8.4-44.7-50.9-64.2-77.3c-17.3-24.4-37-46.4-56.3-68.2c-12.8-11.6-21.7-32.1-40.4-32.9
	c-9.9,1.3-15.4,10.4-23.9,13.6c-19.3,7.2-37.7-9-47.2-23.9C-3.6,759.8,8.4,727.4,33.4,695.6z"/>
<path vector-effect="non-scaling-stroke" class="st1" d="M33.4,695.6C60.2,657.3,89,620,115.3,581.4c28-37.2,48.7-81.7,101.7-84.1
	c16.6-2,33.5,2.2,50,4c21.8,0.8,44.3-3.4,62.5-15.9c20.8-14.1,37-34.2,56.3-50c17.3-18.4,43.8-25.2,55.7,2.3c3.6,11.7,1.5,25,8,35.8
	c12.4,20.1,34.7,4.4,39.8-13.1c15.4-38.1,7.5-85.6-25-112.5C399,290.6,330.5,235.9,265.3,178.4"/>
<path vector-effect="non-scaling-stroke" class="st2" d="M265.3,178.4c-18.3-16.4-36.2-36-59.7-44.3c-32.8-9-56.1,10.8-55.7,44.3
	c-1.4,12.7-4.9,26.6-16.5,33.5c-14.2,9.2-32.6-1-38.7-15.3c-14.7-32.5,33.8-101,57.4-123.3c39.2-40.3,98.8-43.3,151.2-51.7
	c27.5-4.8,55.8-6.6,83.6-10.2c30.8-4.6,64.1-7.6,90.9,11.4c28.2,19.2,39.1,53,43.8,85.3c6.6,37.3,8.5,75.4,10.8,113.1
	c1.7,25,5.1,50.1,13.1,73.9c12.7,29.4,26.2,60.3,16.5,92.7c-3.8,16-11.6,32-8.5,48.9c3.9,34.5,35.7,49.2,23.9,88.1
	c-6.7,23.3-29.1,34.3-46.6,48.3c-16.7,13.4-30,31.3-40.4,50"/>
<path vector-effect="non-scaling-stroke" class="st3" d="M490.4,622.9c-44.2,80-77.5,165.9-119.4,247.3
	c-16.4,31.2-32.7,62.9-53.4,91.5c-17.6,26.4-54,34.7-81.3,18.8c-25.7-16.4-32.3-48.1-49.5-71.6c-24.4-33.6-52.5-64.5-80.7-94.9
	c-26.6-20.8-31.5,19.8-60.8,6.8c-26.7-11.8-41.2-44.5-37.5-72.8c1-20,14.8-36.4,25.6-52.3"/>
</svg>
