<?xml version="1.0" encoding="utf-8"?>
<!-- Generator: Adobe Illustrator 25.2.3, SVG Export Plug-In . SVG Version: 6.00 Build 0)  -->
<svg version="1.1" id="Layer_1" xmlns="http://www.w3.org/2000/svg" xmlns:xlink="http://www.w3.org/1999/xlink" x="0px" y="0px"
	 viewBox="0 0 901.4 1016.1" style="enable-background:new 0 0 901.4 1016.1;" xml:space="preserve">
<style type="text/css">
	.st0{fill:none;stroke:#374151;stroke-width:6.6462;stroke-miterlimit:3.3231;}
	.st1{fill:none;stroke:#EF4444;stroke-width:1.6615;stroke-miterlimit:3.3231;}
	.st2{fill:none;stroke:#3B82F6;stroke-width:1.6615;stroke-miterlimit:3.3231;}
	.st3{fill:none;stroke:#FBBF24;stroke-width:1.6615;stroke-miterlimit:3.3231;}
</style>
<path vector-effect="non-scaling-stroke" class="st0" d="M388.8,896.4C271.3,800.2,153.7,703.1,36.6,606.5
	c-11.8-8.8-25.3-18.6-28.2-34.1c-1.6-17.6,14-30,29.9-33.2c33-3.8,66.1,7.8,96.4,19.9c64.2,32,111.4,87.7,167.8,130.4
	c22.6,20.3,59.8,26,77.3-3.3c14.5-30.3-7.8-56.2-23.3-80.6c-26.6-51.2-5.3-94,20.8-139.6c22.6-40.8,44.3-82.3,67.3-123
	c15.2-27.2,32.3-54.7,51.5-78.9c18.6-25.1,39-49.4,34.9-82.2c-4.6-52.9-67.7-138.6,0.8-170.3c44.4-13.4,82.1,26.6,110.5,54.8
	c21.5,22.4,42.6,44.7,62.3,68.1c26.8,29.9-2.4,44.6-0.8,74.8c0,20.3,8.4,39.7,12.5,59c5.5,31.3,17.7,62.5,51.5,69.8
	c12.7,3,26,1.4,38.2,4.2c29.5,6.4,49.4,33.5,46.5,63.1c-6.9,49.5-31,89.4-10,140.4c11.6,27.1,33.4,48.2,44.9,74.8
	c11,29.3,7.1,66.1-15,88.9c-39.6,44-83.2,85.4-121.3,129.6c-19.1,17.6-57.7,74.6-81.4,72.2c-32.7,0.8-46.6-33.2-63.1-54.9
	c-14.6-20.2-32.4-38.1-52.4-51.5c-41.3-27.2-78.9,9.4-51.4,49.1c26.2,32.5,70.3,45.3,93.9,79.8c16.3,23.7,4.3,58.8-21.7,68.9
	c-26.8,11-57.1,1-78.1-16.7C460.2,956.2,425,926.4,388.8,896.4z"/>
<path vector-effect="non-scaling-stroke" class="st1" d="M388.8,896.4c-84.5-68.5-168.2-139-252.6-207.7
	c-29.6-24.8-60.3-48.9-89.7-73.9c-11.8-10.5-26.4-18.7-34.9-32.4c-8.5-15.1,0.8-34.4,16.6-39.9c22.8-9.5,47.5-1,70.6,3.3
	c80.3,23.7,136.1,90.3,199.4,141.2c12.3,7.8,24.6,18.9,39.9,19.1c22,4,45.5-13.5,45.7-36.6c3.1-21.6-12.2-40.2-23.3-57.3
	c-11.4-16.9-16.1-38-16.6-58.2c2.2-42.2,29-78.3,48.2-114.6c26.4-50.6,53.7-101.5,84.7-149.5"/>
<path vector-effect="non-scaling-stroke" class="st2" d="M476.9,290c16.5-25.3,39.2-47.4,50.7-75.6c13.7-47.1-19.2-91.3-25.8-137.1
	c-10.2-42.9,21.4-79.7,65.6-65.6c39.8,13.7,68.8,48.1,96.4,78.1c17.2,18.7,37.4,36.7,49.8,59c7,16.1-3.9,30-8.3,44.9
	c-6.1,24.1,4.7,48.1,10,71.4c6.5,34.3,17.5,67.5,56.5,73.9c11.1,2,23,0.8,34.1,3.3c25.7,5.5,46.3,28.1,46.5,54.8
	c0.7,28-12.3,54.1-16.6,81.4c-4.5,28.9-0.3,59.8,15.8,84.7c18.4,29.3,45,57.5,41.5,94.7c0.3,40.4-35.2,65.8-59.8,93"/>
<path vector-effect="non-scaling-stroke" class="st3" d="M833.3,751c-31,32.1-61.8,64.7-91.4,98c-11.6,13.6-24.3,27.1-36.6,39.9
	c-10.6,12.1-24,24.9-41.5,22.4c-25.9-3.7-39.3-28.2-52.3-48.2c-12.2-16.3-25-33.6-41.5-45.7c-19.5-21.7-66.7-36.2-75.6,2.5
	c-6.8,43.4,44.4,61,71.4,83.9c14.5,11.6,31.1,23.9,36.6,42.4c10.2,40.6-28.1,68.4-65.6,59.8c-25.5-5-44.6-24-64-39.9
	c-28.1-22.9-55.9-46.6-83.9-69.8"/>
</svg>
