<?xml version="1.0" encoding="utf-8"?>
<!-- Generator: Adobe Illustrator 25.2.3, SVG Export Plug-In . SVG Version: 6.00 Build 0)  -->
<svg version="1.1" id="Layer_1" xmlns="http://www.w3.org/2000/svg" xmlns:xlink="http://www.w3.org/1999/xlink" x="0px" y="0px"
	 viewBox="0 0 1668.2 839.1" style="enable-background:new 0 0 1668.2 839.1;" xml:space="preserve">
<style type="text/css">
	.st0{fill:none;stroke:#374151;stroke-width:6.6462;stroke-miterlimit:3.3231;}
	.st1{fill:none;stroke:#EF4444;stroke-width:1.6615;stroke-miterlimit:3.3231;}
	.st2{fill:none;stroke:#3B82F6;stroke-width:1.6615;stroke-miterlimit:3.3231;}
	.st3{fill:none;stroke:#FBBF24;stroke-width:1.6615;stroke-miterlimit:3.3231;}
</style>
<path vector-effect="non-scaling-stroke" class="st0" d="M1286,282.5c74.8,85.4,150.1,171.4,225.1,256.7
	c41.8,51.8,91.4,99.1,129.6,153.7c24,40.6,32.4,115.2-21.6,134.6c-43.1,15.3-74.3-23.1-90.6-58.2
	c-73.7-165.7-154.5-22.3-191.1-178.6c-28.6-73.1-73-43.8-127.9-64.8c-28.3-11.1-47.7-43.9-40.7-73.9c4.6-22.3,17-44,18.3-67.3
	c1.4-68.2-68-98.2-127.1-98c-58.4-1.8-114.9,28.2-150.4,73.9c-25.1,31.5-46.7,70.5-79.8,93.9c-18.2,9.4-39.3,15.3-59,16.6
	c-16.6,2-34.7,5.9-50.7,3.3c-34.4-2.4-42.7-39.7-46.5-67.3c-6.1-34.1-14.1-68.5-22.4-101.4c-6.7-28.1-15.7-57.9-12.5-86.4
	c1.6-22.7,11.3-44.6,19.1-64.8c10.2-17.2,20.9-48.6-8.3-50.7c-69.9,24-43,195.9-246.7,170.3c-243-34.2-197.3-217-285-260
	C38.3-14.3-33.3,61.4,35.7,128C145.5,224.1,284.3,277,421.2,319c41.1,15,85.4,26.5,125.5,40.7c53.7,15.1,105.8,40.4,160.3,44.8
	c109.8,3.3,173.9-98.1,244.2-164.5c55.4-60.5,57.7,5.2,103.9-16.6C1136.5,146.1,1227.7,214.5,1286,282.5z"/>
<path vector-effect="non-scaling-stroke" class="st1" d="M1286,282.5c112.3,128.6,226,256.8,337.3,386.3
	c30.3,35.1,47.7,88,27.4,132.1c-15.2,29-52.9,37.7-80.6,21.6c-47.6-33.6-51.5-106.2-105.5-134.6c-20-11.6-45.3-9.7-67.3-14.1
	c-48.2-15.6-48.8-53.1-64-93c-8.1-18.1-24.1-34.5-43.2-40.7c-22.7-7.9-49-1.9-71.4-10.8c-37.1-9.4-59.9-49.9-48.2-86.4
	c59.1-120.5-57-174.8-161.2-150.4c-59.6,15.4-99.8,64.3-132.9,113"/>
<path vector-effect="non-scaling-stroke" class="st2" d="M876.5,405.4c-20.2,28.2-45.7,55.9-81.4,62.3
	c-39,4.9-102.7,23.6-114.6-29.9c-9.8-39.9-15-81.7-26.6-121.3c-12.4-47-25.4-98.5-2.5-144.6c4.3-15.6,15.4-30.3,17.4-46.5
	c2.7-14.5-12.6-25.2-25.8-19.9c-17.1,9.1-27.2,27.8-34.9,44.9c-23.2,46.9-51.1,99.2-103.8,117.1c-86.5,24.3-201-2.2-264.2-67.3
	c-26.5-28.2-45.7-63.4-60.6-98.9c-16.2-41.1-38.2-94.3-90.6-93c-56.3-3.6-102.4,43.8-70.6,98c14,22.9,37.7,39.2,59,54.8
	c26.9,18.7,55.5,37.7,83.9,54c111.7,62.1,236.6,95.5,357.2,135.4"/>
<path vector-effect="non-scaling-stroke" class="st3" d="M518.4,350.6c67.3,17.5,132.9,53.8,203.5,54c98.3-6.4,156.9-94.3,221.8-157
	c66.4-73.3,59-2.1,111.3-24.1c81.8-77.2,171.9-9.5,231,59"/>
</svg>
