<?xml version="1.0" encoding="utf-8"?>
<!-- Generator: Adobe Illustrator 25.2.3, SVG Export Plug-In . SVG Version: 6.00 Build 0)  -->
<svg version="1.1" id="Layer_1" xmlns="http://www.w3.org/2000/svg" xmlns:xlink="http://www.w3.org/1999/xlink" x="0px" y="0px"
	 viewBox="0 0 1336.2 955.2" style="enable-background:new 0 0 1336.2 955.2;" xml:space="preserve">
<style type="text/css">
	.st0{fill:none;stroke:#374151;stroke-width:6.912;stroke-miterlimit:3.456;}
	.st1{fill:none;stroke:#EF4444;stroke-width:1.728;stroke-miterlimit:3.456;}
	.st2{fill:none;stroke:#3B82F6;stroke-width:1.728;stroke-miterlimit:3.456;}
	.st3{fill:none;stroke:#FBBF24;stroke-width:1.728;stroke-miterlimit:3.456;}
</style>
<path vector-effect="non-scaling-stroke" class="st0" d="M195.1,13.6C350.6,38,506.8,58.4,662.5,81
	c117.7,12.3,235.8,22.9,352.5,41.5c57.6,7.1,115.4,15.8,172.8,24.2c47.3,6.8,119.9,8.9,100.2,76.9c-7.7,52.3,50.3,29.7,38,101.1
	c-13.1,51.1-43.7,95.6-70,140.8c-42.8,71.3-88.5,140.9-132.2,211.7c-17.9,28.4-37.1,57.4-57,83.8c-8,10.1-15.8,20.7-22.5,31.1
	c-9.2,9.6-16.3,23.3-13.8,36.3c1.7,17.5,18.9,26.1,32,34.6c10.1,9.7,11.2,23.6,3.4,34.6c-11.1,12.4-27.1,18.8-38.9,29.4
	c-18.7,12.6-46.4,32.2-64.8,9.5c-7.7-15-7.4-32-3.5-47.5c1.9-19.8,8-39.6,11.2-58.8c6.8-32.8,14.1-65.7,18.1-98.5
	c5.3-27.6,10.6-60.2-5.2-84.7c-14.8-24.3-44.1-33.1-60.5-55.3c-12.7-14.1-19.7-32.3-31.1-46.7c-28.7-33.6-61.9-41.6-103.7-41.5
	c-34.5-0.5-66.2-19.1-87.3-44.9c-11.2-19.1-19.6-40.2-34.6-56.2c-25.1-28.8-62.9-41.3-96.8-55.3c-84.5-32.4-176.4-34-263.6-50.1
	c-23.6-2.7-46.7-6.8-69.1-10.4c-30.2-1-54.6-17.3-59.6-47.6c-4.5-27.7,1.6-55.7,0-82.9c-0.5-20.6-9.5-49.4-34.6-34.5
	c-18.1,21.8-41.8,21.4-66.5,15.5c-20.7-4.1-45.7-2-59.6-19c-23.4-32.3,8.5-72,37.2-87.3C106.1,3.3,139.8,7.2,195.1,13.6z"/>
<path vector-effect="non-scaling-stroke" class="st1" d="M195.1,13.6C350.6,38,506.8,58.4,662.5,81c92.4,10.2,185.4,17.2,277.3,31.1
	c74.6,9.2,149.4,20.3,223.8,31.1c25.7,4.1,52.4,6.4,77.8,12.1c30.7,4.3,54.8,24.7,49.2,57.9c-8.1,29.8-2,39.2,21.6,56.2
	c18.6,16.6,18.5,45.3,10.4,67.4c-21.3,62.3-60.4,117.4-94.2,173.7c-47.8,75.9-94.3,152.7-144.3,227.2"/>
<path vector-effect="non-scaling-stroke" class="st2" d="M1084.1,737.7c-14.2,18.7-28.2,38.4-42.3,57c-11.3,13-15.7,31.4-6.9,46.7
	c7.2,9.4,17.8,15.2,27.6,21.6c16,15.5,7.6,35.5-9.5,45.8c-19.1,11.9-36.3,27.1-57,36.3c-52,12.9-40.1-50.6-32.8-81.2
	c7.8-39.7,17.3-79.2,23.3-119.2c3.9-29.5,13-61.3,0.9-89.9c-14.7-32.1-53.4-42-71.7-71.7c-18.8-33.1-39.7-63.3-78.6-74.3
	c-20-6.4-41.8-3-62.2-6c-26.8-5.3-52.9-17.8-70-39.7c-10.5-11.6-16.8-27.6-24.2-41.5c-9.3-13.3-20.1-27.2-33.7-36.3
	c-71.4-46.1-157.6-64.2-241.1-73.4"/>
<path vector-effect="non-scaling-stroke" class="st3" d="M405.9,311.7c-63.8-8.2-127.6-18.2-190.9-28.5c-54-16.8-36.5-79.8-38-122.7
	c-0.4-10.4-1.2-21.4-5.2-31.1c-6.6-12.6-22-16-32-5.2c-19.6,23.2-49.2,16.2-75.2,11.2c-15.1-2.4-31.1-3.1-44.1-12.1
	c-25.5-24.9-7-63.5,17.3-82.1c25.2-18.5,57-30,88.1-32c22.9-3.5,46.3,3.8,69.1,4.3"/>
</svg>
