<?xml version="1.0" encoding="utf-8"?>
<!-- Generator: Adobe Illustrator 25.2.3, SVG Export Plug-In . SVG Version: 6.00 Build 0)  -->
<svg version="1.1" id="Layer_1" xmlns="http://www.w3.org/2000/svg" xmlns:xlink="http://www.w3.org/1999/xlink" x="0px" y="0px"
	 viewBox="0 0 753.3 958.5" style="enable-background:new 0 0 753.3 958.5;" xml:space="preserve">
<style type="text/css">
	.st0{fill:none;stroke:#374151;stroke-width:7.8545;stroke-miterlimit:3.9273;}
	.st1{fill:none;stroke:#EF4444;stroke-width:1.9636;stroke-miterlimit:3.9273;}
	.st2{fill:none;stroke:#3B82F6;stroke-width:1.9636;stroke-miterlimit:3.9273;}
	.st3{fill:none;stroke:#FBBF24;stroke-width:1.9636;stroke-miterlimit:3.9273;}
</style>
<path vector-effect="non-scaling-stroke" class="st0" d="M11.9,659c-3.6-48.1-4.4-96.9,4.9-144.3c5.2-20.3,4.4-46.1,20.6-60.9
	c16.9-17.3,43.8-15.4,65.8-19.6c26.5-1.7,52.5-8.7,78.5-13.7c19.7-3.7,39.5-8.5,58.9-12.8c17.2-3.2,35.6-4.8,52-10.8
	c36.2-9.8,69.5-29.7,107-35.3c29.6-6.5,60.8-7.3,89.3-18.7c37.8-15.8,60.7-51.2,43.2-91.3c-5.8-10.7-12.7-21.1-21.6-29.5
	c-10.6-8.4-17.8-20.4-21.6-33.4c-3.2-26.7,15.9-48.9,32.4-67.7c14.7-20.5,30-40.5,45.2-60.9c15.1-20.9,52.9-80.3,73.6-35.3
	c3.7,20.2,8.6,40.1,18.7,57.9c3.5,7,7.1,15.5,13.8,19.6c8,4.8,18.1-1.9,15.7-10.8c-6.3-15-26.2-21-28.5-38.3
	c-5.3-19.5,15.2-30.5,29.5-37.3c16.2-6.5,30.5-11.1,45.2,2c16.9,23.2,7,54.6,3.9,80.5c-5.3,27.8-11,55.9-19.6,82.5
	c-18.3,50-35.9,106.5-80.5,138.4c-53.8,28.4-108.1,57.8-165.9,75.6c-22.7,6.6-45.9,12.1-68.7,15.7c-15,4.1-31.6,3.7-45.2,10.8
	c-15.5,7.6-16.3,30.1-40.3,24.5c-47-10.7-94.7,0.6-141.4,4.9c-30.9,4.4-65.6,3.6-91.3,22.6c-24.4,19.3-35.9,51.9-37.3,81.5
	c-2.9,18.8,1.8,37.9,6.9,55C66.8,633,82,654.5,86.5,679.6c6.6,21.4,14.8,44.2,10.8,65.8c-3.1,16-15.9,28.3-15.7,44.2
	c-1,28.1,13.3,53.7,29.5,74.6c13.1,16.8,31.3,28.1,48.1,39.3c11.8,6,19.8,21.6,11.7,32.4c-13.7,9.9-31.5,12.1-47.1,13.7
	c-17.3-2.3-26.3-11.5-32.4-26.5c-6.7-14.6-12-29.9-19.6-43.2C37.2,811,16.8,735.9,11.9,659z"/>
<path vector-effect="non-scaling-stroke" class="st1" d="M11.9,659c-2.2-45.9-6.7-93.4,4.9-138.4c-0.4-9.8,2.9-20,4.9-29.5
	c1.1-11.6,4.7-24,11.8-33.4c20.8-26.9,77.9-20.3,110-29.5c47.9-9.7,96.1-20.2,144.3-29.5c27.8-7.8,53.7-21.4,81.5-29.5
	c40.2-15.3,86-10.1,124.7-29.5c38.5-14.8,56.9-59.3,34.4-95.2c-8.7-18.5-30-28.2-36.3-48.1c-12.7-29.9,14.4-56.8,31.4-78.5
	c15.3-20.5,30.6-41.2,46.1-61.9"/>
<path vector-effect="non-scaling-stroke" class="st2" d="M569.5,56.1c13.6-17.3,33.2-54.1,58.9-46.1c15.4,8.1,12.8,28,17.7,42.2
	c5.8,13.6,21.6,69,42.2,46.1c2.1-20.8-27.1-23.5-29.5-49.1c-0.4-21.1,21.7-28.7,37.3-36.3c59.3-18.8,48.9,48.7,42.2,85.4
	c-9.7,54-24.6,108.1-50.1,157.1c-10.9,22.4-24.4,45.4-45.2,59.9c-18.6,12.9-40.1,23.5-60.9,32.4c-40.7,21.3-82.8,41.1-127.6,52
	c-31.4,9.6-65.7,10.2-96.2,21.6c-15.6,7.7-16.2,30-40.3,24.5c-46.8-10.7-94.4,0.5-141.4,4.9c-69.3,6.2-111.2,12.2-127.6,89.3"/>
<path vector-effect="non-scaling-stroke" class="st3" d="M49.2,540.2c-2.8,24.6-2.6,50.7,7.9,73.6c11.4,21.1,25,41.8,29.5,65.8
	c6.5,20.9,14.8,43.8,10.8,65.8c-2.8,15.5-15.8,28.1-15.7,44.2c-1,27.7,13,53.5,29.5,74.6c12.9,16.6,30.9,28,48.1,39.3
	c18.6,9.5,22.1,36.2-2.9,39.3c-17.6,7.5-41.6,10.9-56-3.9c-9.7-14.5-15-31.6-22.6-47.1c-6.7-15.5-15.8-30.3-21.6-46.1
	C30.6,786.8,16.2,722.9,11.9,659"/>
</svg>
