<?xml version="1.0" encoding="utf-8"?>
<!-- Generator: Adobe Illustrator 25.2.3, SVG Export Plug-In . SVG Version: 6.00 Build 0)  -->
<svg version="1.1" id="Layer_1" xmlns="http://www.w3.org/2000/svg" xmlns:xlink="http://www.w3.org/1999/xlink" x="0px" y="0px"
	 viewBox="0 0 983 852" style="enable-background:new 0 0 983 852;" xml:space="preserve">
<style type="text/css">
	.st0{fill:none;stroke:#374151;stroke-width:8;}
	.st1{fill:none;stroke:#EF4444;stroke-width:2;}
	.st2{fill:none;stroke:#3B82F6;stroke-width:2;}
	.st3{fill:none;stroke:#FBBF24;stroke-width:2;}
</style>
<path vector-effect="non-scaling-stroke" class="st0" d="M140,321c1.6-4.2,4.6-12.7,6-17c2.3-3.8,5.5-11.8,7-16
	c1.4-4.6,4.8-13.7,7-18c2.5-7.9,6.4-18.5,10-26c1.6-4.2,4.6-12.7,6-17c3.7-7.6,7.3-18.4,11-26c4.3-10.6,8.1-23.7,13-34
	c3-7.7,6.3-18.6,10-26c1.6-4.1,4.2-12.9,6-17c1.2-4.4,4.6-13,7-17c1.6-4.1,4.2-13,6-17c0.9-3.6,3.3-10.7,5-14c1.7-2.9,3.9-9.9,5-13
	c2.6-4.4,5-11.3,7-16c1.4-1.9,4-6.9,5-9c1.6-1.7,4.1-5.9,5-8c1.7-1.5,4.7-5.1,6-7c0,0,3-3,3-3s4-2,4-2s3-3,3-3c1.6-1,5.2-2.5,7-3
	c1.9-1.2,5.8-2.6,8-3c3.6,0.1,8.5-0.1,12,0c0,0,5,2,5,2c4.1,0.6,8.9,3.3,12,6c1.7,0.9,4.7,3.5,6,5c2.7,2.6,6.2,6.2,7,10c0,0,2,3,2,3
	s1,3,1,3c1,2.8,2.4,7.3,3,10c0,5.2,0.3,11.9-1,17c-1.2,4.7-3,10.2-4,15c-0.8,4.1-3.1,9.3-5,13c-0.3,2.2-1.9,6.1-3,8c0,0-2,5-2,5
	s-3,4-3,4c-2.9,7.8-7.1,16.2-10,24c0,0-3,5-3,5c-0.7,3-3,8.2-4,11c-1.2,2.4-2.7,7.3-3,10c-0.7,2.9-3,8.2-4,11c0,0-1,6-1,6
	c-3.2,9-4.2,19.7-6,29c-0.4,3.3-1.4,9.7-1,13c-0.6,3-1.3,8.9-1,12c0.3,3.1-0.3,9-1,12c0,5.4,0,12.6,0,18c-1.2,7.2-2.9,15.8-4,23
	c-0.2,2.6-1.9,7.6-3,10c-0.8,2.7-3.4,7.7-5,10c-1.8,4.2-5.9,9-8,13c-3.7,2.4-7.9,6.9-11,10c-2.2,0.9-6.2,3.4-8,5
	c-3.7,1.8-8.9,4.2-12,7c-5.6,2-12,5.9-18,7c-5,2.3-10.6,6-16,7c-5.5,2.5-10.9,6.8-16,10c-2,3.1-6,6.9-8,10c-2.2,3.5-3.3,9-4,13
	c0.4,3.8,2,9.3,3,13c2,3.2,5.1,7.6,8,10c2.1,1.4,5.8,4.9,8,6c0,0,5,2,5,2c3.6,1,10.4,2.4,14,2c3,0.5,13.9-1.4,17-2
	c5.5-1.1,12.1-2,17-5c4-1.1,9.4-1.6,13-4c2.1-0.5,5.9-1.5,8-2c2-1.2,5.7-2.6,8-3c0,0,4-2,4-2s5-1,5-1c3.7-2,8.9-4.2,13-5
	c4.2-1.6,9.6-4.1,14-5c4.5-2.3,11.1-3.2,16-4c2.5-1.2,7.3-2.7,10-3c5.4-0.9,12.5-2.4,18-2c5-1.1,11.9-2.4,17-2c9.9,0,21.1,0,31,0
	c3.3,0.5,9.7,1.3,13,1c13.3,2,27.7,4.2,41,6c3.4,0.2,9.9,1.7,13,3c3.5,0.5,10.5,1.5,14,2c8.2,3.2,19.2,3.4,28,5c9.1-0.2,20,0.7,29-1
	c8.6,0.3,18.8-1.4,27-4c6.4-0.5,14.8-3.2,21-5c8.2-3.6,18-8,26-12c8.3-3.8,17.5-9.8,25-15c3.4-1.5,9.8-5.1,13-7
	c5.4-3.7,12.7-8.9,19-11c0,0,7-4,7-4c3.4-0.9,9.8-3.6,13-5c2.9-1.9,9.6-4.3,13-5c8.7-2.5,19.2-5.5,28-8c16.3-2.1,33.5-5.8,50-5
	c11.7-1.8,25.2-0.7,37-1c9,0,20,0,29,0c0,0,8,1,8,1s7,0,7,0c6.5,1,15.7,1.7,22,4c6.2,0.5,14.7,2.7,20,6c3.5,0.9,9.8,3.5,13,5
	c2.7,1.7,8.1,4.7,11,6c10.5,7,22,15.6,28,27c5.5,6,9.4,14.8,13,22c0.5,3,3.1,10,4,13c0.3,2.9,1.7,9,2,12c-0.1,3.9,0.4,11.2,1,15
	c-0.8,3.2-1.2,9.7-1,13c-0.4,3.1-1.8,9.1-3,12c0,0-1,7-1,7c-1,3.1-3.3,9.2-5,12c-1.8,5.3-5.6,12-8,17c-2.2,2.4-5.8,7.6-8,10
	c-1.1,3.2-6,8.4-8,11c0,0-3,5-3,5s-5,5-5,5c-2.9,5-7.2,11.6-11,16c-1.5,3.2-4.8,9.2-7,12c-4.5,9.4-10.1,19.7-15,29
	c-1.7,4.7-3.9,11.4-6,16l0,0c-2,4.4-3.6,10.9-6,15c-3,7.5-6.5,15.8-10,23c-1.7,1.8-4,5.8-5,8c-2.4,3.5-6.6,7.4-9,11
	c-1.5,1.5-4.5,4.5-6,6c-4.3,3.2-9.6,7-14,10c0,0-4,3-4,3c-2.2,0.3-6.1,1.9-8,3c-2.1,1.2-6.7,3.1-9,4c-3.8,1-9.2,2-13,3
	c-2.4-0.2-6.7,0.1-9,1c-8,0-17,0-25,0c-2.5-0.5-7.5-1.5-10-2c-5.3,0.4-11.2-0.6-16-3c-2.5-0.5-7.5-1.5-10-2c-2.4-1.2-7.4-2.7-10-3
	c-6.3-2.5-13.7-5.5-20-8c-2.5-1.5-7.5-4.5-10-6c-4-1.6-8.5-5.4-12-8c-2-1.5-6-4.5-8-6c-1.5-1.7-5.1-4.7-7-6c-0.9-1.8-3.5-4.7-5-6
	c-1.2-1.9-5.1-6-6-8c-0.7-2.1-2.6-6.4-4-8c-0.7-1.6-1.6-5.3-2-7c-1.4-3.7-1-9.1-1-13c-0.4-3.5,1.3-8,3-11c1-2.4,3.9-7.6,5-10
	c4.3-5.4,9-12.3,15-16c4-2.6,10-5.4,14-8c4.2-1.1,10.1-2,14-4c3.7,0.4,8.4-1.1,12-2c2,0,6,0,8,0c2-0.7,5.9-1.2,8-1
	c2.1,0.2,6-0.3,8-1c0,0,5,0,5,0c3.9,0,9.3,0.4,13-1c2.4,0.2,6.7-0.1,9-1c2.2-0.3,6.8-1.4,9-2c0,0,5-1,5-1s4-2,4-2s5-1,5-1s4-2,4-2
	c3.7-2,9.3-3.9,13-6c1.6-1.2,5.3-4,7-5c3.7-2.4,7.9-6.9,11-10c0,0,3-5,3-5c1.4-1.2,4.1-4.3,5-6c0.5-1.9,2.1-5.3,3-7
	c0.3-1.6,1.4-5.5,2-7c0-4.3,0-9.7,0-14c-1.2-5.1-2.8-11.2-5-16c0,0-2-3-2-3l-1-3c0,0-3-2-3-2c-1.1-1.5-2.9-4.5-4-6
	c-2.8-1.5-5.8-4.8-8-7c-2.3-1.1-6-3.7-8-5c-3.6-1.1-8.7-3.2-12-5c-2.8-0.4-9.2-2.1-12-3c0,0-4,0-4,0c-1.8-0.6-5.2-1.2-7-1
	c0,0-4-1-4-1h-5c-5,0-11,0-16,0c-7.5-1.9-16.3-0.7-24-1c-2.5,0.7-7.4,1.2-10,1c-8.3,0-17.7,0-26,0c-4.7,1.2-11.2,1.1-16,1
	c-3,0.7-8.9,1.2-12,1c-4.2,0.6-17,2.2-21,3c-2.8-0.2-8.3,0.4-11,1c-9.9,1.6-21.1,3.3-31,5c-6,1-14.2,1.9-20,4c-3.3,0.3-9.8,2-13,3
	c-3.1,0.3-9.1,1.8-12,3c-6.1,0.7-14.1,3.4-20,5c-5.5,1.9-13.2,4.3-19,5c-5.9,3-14.7,5.2-21,7c-3.2,1.1-9.7,3.1-13,4
	c-3.2,1.6-10.4,4.2-14,5c-3.2,1.6-10.4,4.2-14,5c-7.6,4.1-17.3,8.1-25,12c-3.4,1.5-10.8,4.6-14,6c-5.7,3.4-13.5,7.3-19,10
	c-5.4,1.5-12.1,4.5-16,8c-0.2,0.1-6.1,2-6,2c-0.2,0.1-4.1,3.1-4,3c-4.1,2-9.4,4.7-13,7c-2.2,0.4-6.4,3-8,4c-2.4,1.5-7.6,3.3-10,4
	c-4.3,2.1-10.6,3.4-15,4c-0.2,0-6.1,0-6,0c-3-0.6-7-2.2-10-2c-2.8-2.1-7.2-3.9-10-6c-1.9-1.9-5.7-5.7-8-7c0,0-3-4-3-4s-4-3-4-3
	c-3-2.2-7.8-5-11-7c-2-0.4-6-1.6-8-2c-4,0.1-9.2-0.4-13,1c-4.2,1.3-9.6,3.2-13,6c-4.6,4.2-9.2,10-11,16c0,0-2,4-2,4v3
	c-1.6,6.8-0.9,15.1-1,22c0,0,1,5,1,5c-0.2,2.4,0.1,6.7,1,9c0,0,1,6,1,6c0.6,1.8,1.2,5.2,1,7c1.4,5.6,2.8,12.4,4,18
	c0.4,2.3,2,6.9,3,9c0.5,2.5,1.5,7.5,2,10c0.4,2.3,2,6.9,3,9c0,0,1,5,1,5c0.9,4.6,1.9,10.8,4,15c0.3,2.6,1.9,7.6,3,10
	c0.7,4.9,1.8,11.5,4,16c0.3,3.1,1.8,9.1,3,12c0.6,2.7,1.6,8.3,2,11c0,0,2,5,2,5s1,6,1,6c0.7,5.1,2.1,12.2,4,17c1,6.6,2.7,14.5,4,21
	c0.6,2.4,1.3,7.5,1,10c0.3,2.1,1.5,6.9,2,9c0,5.9,0,13.1,0,19c0,0-1,4-1,4s0,4,0,4s-1,5-1,5c-1.2,1.7-2.7,5.9-3,8c0,0-2,4-2,4
	c-1.2,1.6-3.2,5.1-4,7c0,0-3,3-3,3c-2.3,3.3-6.1,7.3-9,10c-1.7,1.3-5.4,3.6-7,5c-6.7,3.2-14,7.4-21,10c-3.8,1-9.2,2-13,3
	c-4.2,0.7-9.8,2.4-14,2c-8.5,1.8-18.3,0.7-27,1c-2.5-0.1-7.5,0.1-10,0c-3-0.8-9-1.1-12-1c-8.6-1.6-18.3-3.5-27-5
	c-2.6-1.3-8.2-2.5-11-3c-3-1.1-9-2.9-12-4c-2.3-1.8-7.3-4-10-5c-2.5-1.6-7.5-4.4-10-6c-4.4-3.6-10.6-8.4-15-12c-2-2.2-6.6-6.2-9-8
	c-4.7-6.3-11.2-13.1-15-20c-5.7-5.8-8.2-15-12-22c-0.8-3.2-3.4-9.1-5-12c-0.2-3.2-1.9-9.1-3-12c-0.3-3.3-1.5-9.7-2-13
	c-1.6-8.1-0.9-17.8-1-26c0.8-3.5,1.2-10.4,1-14c2.3-5.4,2.9-13.3,4-19c1.1-3.2,3.1-9.7,4-13c2.2-7.9,5.4-17.2,8-25
	c2.8-5.7,5.4-13.9,7-20c1.5-3.3,4.2-9.9,6-13c0,0,2-7,2-7c1.8-6,5.7-13.8,7-20c1.6-3,4-9.8,5-13c1.7-3.3,4.1-10.4,5-14
	c1.7-3.3,4.1-10.4,5-14c0,0,3-6,3-6c1.5-6.5,5.4-14.9,8-21c0,0,2-7,2-7c1.7-3.2,4.1-10.4,5-14c2.8-6.4,6.8-15.1,8-22
	c1.9-3,4.3-9.6,5-13c4-9.8,9.2-21.7,12-32c2.7-6.2,6.3-14.8,9-21c0.8-3.6,3.3-10.7,5-14c3.5-8.7,8.8-18.8,11-28
	c1.5-3.4,4.5-10.6,6-14C137.4,327.5,139,323.3,140,321z"/>
<path vector-effect="non-scaling-stroke" class="st1" d="M140,321c1.6-4.2,4.6-12.7,6-17c2.3-3.8,5.5-11.8,7-16
	c1.4-4.6,4.8-13.7,7-18c2.5-7.9,6.4-18.5,10-26c1.6-4.2,4.6-12.7,6-17c3.7-7.6,7.3-18.4,11-26c4.3-10.6,8.1-23.7,13-34
	c3-7.7,6.3-18.6,10-26c1.6-4.1,4.2-12.9,6-17c1.2-4.4,4.6-13,7-17c1.6-4.1,4.2-13,6-17c0.9-3.6,3.3-10.7,5-14c1.7-2.9,3.9-9.9,5-13
	c2.6-4.4,5-11.3,7-16c1.4-1.9,4-6.9,5-9c1.6-1.7,4.1-5.9,5-8c1.7-1.5,4.7-5.1,6-7c0,0,3-3,3-3s4-2,4-2s3-3,3-3c1.6-1,5.2-2.5,7-3
	c1.9-1.2,5.8-2.6,8-3c3.6,0.1,8.5-0.1,12,0c0,0,5,2,5,2c4.1,0.6,8.9,3.3,12,6c1.7,0.9,4.7,3.5,6,5c2.7,2.6,6.2,6.2,7,10c0,0,2,3,2,3
	s1,3,1,3c1,2.8,2.4,7.3,3,10c0,5.2,0.3,11.9-1,17c-1.2,4.7-3,10.2-4,15c-0.8,4.1-3.1,9.3-5,13c-0.3,2.2-1.9,6.1-3,8c0,0-2,5-2,5
	s-3,4-3,4c-2.9,7.8-7.1,16.2-10,24c0,0-3,5-3,5c-0.7,3-3,8.2-4,11c-1.2,2.4-2.7,7.3-3,10c-0.7,2.9-3,8.2-4,11c0,0-1,6-1,6
	c-3.2,9-4.2,19.7-6,29c-0.4,3.3-1.4,9.7-1,13c-0.6,3-1.3,8.9-1,12c0.3,3.1-0.3,9-1,12c0,5.4,0,12.6,0,18c-1.2,7.2-2.9,15.8-4,23
	c-0.2,2.6-1.9,7.6-3,10c-0.8,2.7-3.4,7.7-5,10c-1.8,4.2-5.9,9-8,13c-3.7,2.4-7.9,6.9-11,10c-2.2,0.9-6.2,3.4-8,5
	c-3.7,1.8-8.9,4.2-12,7c-5.6,2-12,5.9-18,7c-5,2.3-10.6,6-16,7c-5.5,2.5-10.9,6.8-16,10c-2,3.1-6,6.9-8,10c-2.2,3.5-3.3,9-4,13
	c0.4,3.8,2,9.3,3,13c2,3.2,5.1,7.6,8,10c2.1,1.4,5.8,4.9,8,6c0,0,5,2,5,2c3.6,1,10.4,2.4,14,2c3,0.5,13.9-1.4,17-2
	c5.5-1.1,12.1-2,17-5c4-1.1,9.4-1.6,13-4c2.1-0.5,5.9-1.5,8-2c2-1.2,5.7-2.6,8-3c0,0,4-2,4-2s5-1,5-1c3.7-2,8.9-4.2,13-5
	c4.2-1.6,9.6-4.1,14-5c4.5-2.3,11.1-3.2,16-4c2.5-1.2,7.3-2.7,10-3c5.4-0.9,12.5-2.4,18-2c5-1.1,11.9-2.4,17-2c9.9,0,21.1,0,31,0
	c3.3,0.5,9.7,1.3,13,1c13.3,2,27.7,4.2,41,6c3.4,0.2,9.9,1.7,13,3c3.5,0.5,10.5,1.5,14,2c8.2,3.2,19.2,3.4,28,5c9.1-0.2,20,0.7,29-1
	c8.6,0.3,18.8-1.4,27-4c6.4-0.5,14.8-3.2,21-5c8.2-3.6,18-8,26-12c8.3-3.8,17.5-9.8,25-15c3.4-1.5,9.8-5.1,13-7
	c5.4-3.7,12.7-8.9,19-11c0,0,7-4,7-4c3.4-0.9,9.8-3.6,13-5c2.9-1.9,9.6-4.3,13-5c8.7-2.5,19.2-5.5,28-8c16.3-2.1,33.5-5.8,50-5
	c11.7-1.8,25.2-0.7,37-1c9,0,20,0,29,0c0,0,8,1,8,1s7,0,7,0c6.5,1,15.7,1.7,22,4c6.2,0.5,14.7,2.7,20,6c3.5,0.9,9.8,3.5,13,5
	c2.7,1.7,8.1,4.7,11,6c10.5,7,22,15.6,28,27c5.5,6,9.4,14.8,13,22c0.5,3,3.1,10,4,13c0.3,2.9,1.7,9,2,12c-0.1,3.9,0.4,11.2,1,15
	c-0.8,3.2-1.2,9.7-1,13c-0.4,3.1-1.8,9.1-3,12c0,0-1,7-1,7c-1,3.1-3.3,9.2-5,12c-1.8,5.3-5.6,12-8,17c-2.2,2.4-5.8,7.6-8,10
	c-1.1,3.2-6,8.4-8,11c0,0-3,5-3,5s-5,5-5,5c-2.9,5-7.2,11.6-11,16c-1.5,3.2-4.8,9.2-7,12c-4.5,9.4-10.1,19.7-15,29
	c-1.7,4.7-3.9,11.4-6,16"/>
<path vector-effect="non-scaling-stroke" class="st2" d="M893,589c-2,4.4-3.6,10.9-6,15c-3,7.5-6.5,15.8-10,23c-1.7,1.8-4,5.8-5,8
	c-2.4,3.5-6.6,7.4-9,11c-1.5,1.5-4.5,4.5-6,6c-4.3,3.2-9.6,7-14,10c0,0-4,3-4,3c-2.2,0.3-6.1,1.9-8,3c-2.1,1.2-6.7,3.1-9,4
	c-3.8,1-9.2,2-13,3c-2.4-0.2-6.7,0.1-9,1c-8,0-17,0-25,0c-2.5-0.5-7.5-1.5-10-2c-5.3,0.4-11.2-0.6-16-3c-2.5-0.5-7.5-1.5-10-2
	c-2.4-1.2-7.4-2.7-10-3c-6.3-2.5-13.7-5.5-20-8c-2.5-1.5-7.5-4.5-10-6c-4-1.6-8.5-5.4-12-8c-2-1.5-6-4.5-8-6c-1.5-1.7-5.1-4.7-7-6
	c-0.9-1.8-3.5-4.7-5-6c-1.2-1.9-5.1-6-6-8c-0.7-2.1-2.6-6.4-4-8c-0.7-1.6-1.6-5.3-2-7c-1.4-3.7-1-9.1-1-13c-0.4-3.5,1.3-8,3-11
	c1-2.4,3.9-7.6,5-10c4.3-5.4,9-12.3,15-16c4-2.6,10-5.4,14-8c4.2-1.1,10.1-2,14-4c3.7,0.4,8.4-1.1,12-2c2,0,6,0,8,0
	c2-0.7,5.9-1.2,8-1c2.1,0.2,6-0.3,8-1c0,0,5,0,5,0c3.9,0,9.3,0.4,13-1c2.4,0.2,6.7-0.1,9-1c2.2-0.3,6.8-1.4,9-2c0,0,5-1,5-1s4-2,4-2
	s5-1,5-1s4-2,4-2c3.7-2,9.3-3.9,13-6c1.6-1.2,5.3-4,7-5c3.7-2.4,7.9-6.9,11-10c0,0,3-5,3-5c1.4-1.2,4.1-4.3,5-6c0.5-1.9,2.1-5.3,3-7
	c0.3-1.6,1.4-5.5,2-7c0-4.3,0-9.7,0-14c-1.2-5.1-2.8-11.2-5-16c0,0-2-3-2-3l-1-3c0,0-3-2-3-2c-1.1-1.5-2.9-4.5-4-6
	c-2.8-1.5-5.8-4.8-8-7c-2.3-1.1-6-3.7-8-5c-3.6-1.1-8.7-3.2-12-5c-2.8-0.4-9.2-2.1-12-3c0,0-4,0-4,0c-1.8-0.6-5.2-1.2-7-1
	c0,0-4-1-4-1h-5c-5,0-11,0-16,0c-7.5-1.9-16.3-0.7-24-1c-2.5,0.7-7.4,1.2-10,1c-8.3,0-17.7,0-26,0c-4.7,1.2-11.2,1.1-16,1
	c-3,0.7-8.9,1.2-12,1c-4.2,0.6-17,2.2-21,3c-2.8-0.2-8.3,0.4-11,1c-9.9,1.6-21.1,3.3-31,5c-6,1-14.2,1.9-20,4c-3.3,0.3-9.8,2-13,3
	c-3.1,0.3-9.1,1.8-12,3c-6.1,0.7-14.1,3.4-20,5c-5.5,1.9-13.2,4.3-19,5c-5.9,3-14.7,5.2-21,7c-3.2,1.1-9.7,3.1-13,4
	c-3.2,1.6-10.4,4.2-14,5c-3.2,1.6-10.4,4.2-14,5c-7.6,4.1-17.3,8.1-25,12"/>
<path vector-effect="non-scaling-stroke" class="st3" d="M426,479c-3.5,1.5-10.5,4.5-14,6c-5.5,3.3-13.3,7.2-19,10
	c-5.2,1.4-11.9,4.4-16,8c0,0-6,2-6,2l-4,3c-3.9,1.9-9.3,4.6-13,7c-2,0.3-6.3,2.9-8,4c-2.2,1.4-7.5,3.3-10,4c-4.2,2-10.4,3.4-15,4
	c0,0-6,0-6,0c-2.8-0.6-7.1-2.2-10-2c-2.8-2.1-7.2-3.9-10-6c-1.9-1.9-5.7-5.7-8-7c0,0-3-4-3-4s-4-3-4-3c-3-2.2-7.8-5-11-7
	c-2-0.4-6-1.6-8-2c-4,0.1-9.2-0.4-13,1c-4.2,1.3-9.6,3.2-13,6c-4.6,4.2-9.2,10-11,16c0,0-2,4-2,4v3c-1.6,6.8-0.9,15.1-1,22
	c0,0,1,5,1,5c-0.2,2.4,0.1,6.7,1,9c0,0,1,6,1,6c0.6,1.8,1.2,5.2,1,7c1.4,5.6,2.8,12.4,4,18c0.4,2.3,2,6.9,3,9c0.5,2.5,1.5,7.5,2,10
	c0.4,2.3,2,6.9,3,9c0,0,1,5,1,5c0.9,4.6,1.9,10.8,4,15c0.3,2.6,1.9,7.6,3,10c0.7,4.9,1.8,11.5,4,16c0.3,3.1,1.8,9.1,3,12
	c0.6,2.7,1.6,8.3,2,11c0,0,2,5,2,5s1,6,1,6c0.7,5.1,2.1,12.2,4,17c1,6.6,2.7,14.5,4,21c0.6,2.4,1.3,7.5,1,10c0.3,2.1,1.5,6.9,2,9
	c0,5.9,0,13.1,0,19c0,0-1,4-1,4s0,4,0,4s-1,5-1,5c-1.2,1.7-2.7,5.9-3,8c0,0-2,4-2,4c-1.2,1.6-3.2,5.1-4,7c0,0-3,3-3,3
	c-2.3,3.3-6.1,7.3-9,10c-1.7,1.3-5.4,3.6-7,5c-6.7,3.2-14,7.4-21,10c-3.8,1-9.2,2-13,3c-4.2,0.7-9.8,2.4-14,2
	c-8.5,1.8-18.3,0.7-27,1c-2.5-0.1-7.5,0.1-10,0c-3-0.8-9-1.1-12-1c-8.6-1.6-18.3-3.5-27-5c-2.6-1.3-8.2-2.5-11-3c-3-1.1-9-2.9-12-4
	c-2.3-1.8-7.3-4-10-5c-2.5-1.6-7.5-4.4-10-6c-4.4-3.6-10.6-8.4-15-12c-2-2.2-6.6-6.2-9-8c-4.7-6.3-11.2-13.1-15-20
	c-5.7-5.8-8.2-15-12-22c-0.8-3.2-3.4-9.1-5-12c-0.2-3.2-1.9-9.1-3-12c-0.3-3.3-1.5-9.7-2-13c-1.6-8.1-0.9-17.8-1-26
	c0.8-3.5,1.2-10.4,1-14c2.3-5.4,2.9-13.3,4-19c1.1-3.2,3.1-9.7,4-13c2.2-7.9,5.4-17.2,8-25c2.8-5.7,5.4-13.9,7-20
	c1.5-3.3,4.2-9.9,6-13c0,0,2-7,2-7c1.8-6,5.7-13.8,7-20c1.6-3,4-9.8,5-13c1.7-3.3,4.1-10.4,5-14c1.7-3.3,4.1-10.4,5-14c0,0,3-6,3-6
	c1.5-6.5,5.4-14.9,8-21c0,0,2-7,2-7c1.7-3.2,4.1-10.4,5-14c2.8-6.4,6.8-15.1,8-22c1.9-3,4.3-9.6,5-13c4-9.8,9.2-21.7,12-32
	c2.7-6.2,6.3-14.8,9-21c0.8-3.6,3.3-10.7,5-14c3.5-8.7,8.8-18.8,11-28c1.5-3.4,4.5-10.6,6-14c0.4-2.5,2-6.7,3-9"/>
</svg>
