<?xml version="1.0" encoding="utf-8"?>
<!-- Generator: Adobe Illustrator 25.2.3, SVG Export Plug-In . SVG Version: 6.00 Build 0)  -->
<svg version="1.1" id="Layer_1" xmlns="http://www.w3.org/2000/svg" xmlns:xlink="http://www.w3.org/1999/xlink" x="0px" y="0px"
	 viewBox="0 0 1590 1045" style="enable-background:new 0 0 1590 1045;" xml:space="preserve">
<style type="text/css">
	.st0{fill:none;stroke:#374151;stroke-width:6.912;stroke-miterlimit:3.456;}
	.st1{fill:none;stroke:#EF4444;stroke-width:1.728;stroke-miterlimit:3.456;}
	.st2{fill:none;stroke:#3B82F6;stroke-width:1.728;stroke-miterlimit:3.456;}
	.st3{fill:none;stroke:#FBBF24;stroke-width:1.728;stroke-miterlimit:3.456;}
</style>
<path vector-effect="non-scaling-stroke" class="st0" d="M1564,115.1c-35.3,51.9-67.3,106.6-101.1,159.8
	c-37.6,62.6-76.2,126.5-128.7,178c-58.2,60.4-142.5,82.5-221.2,102.8c-76.5,22.9-153.5,44-229.8,67.4c-31.3,7.4-62.1,19.3-93.3,26.8
	c-21.2,7.7-46.2,12.6-64.8-3.5c-8.3-7.7-13.8-18.6-19-28.5c-9.4-13.8-18.9-28.2-31.1-39.7c-45-42.9-103.1-82.7-167.6-81.2
	c-50,0.6-98.4,30.2-125.3,71.7c-18.3,29.1-22.3,64.8-19.9,98.5c4.1,49.9,36.8,90.2,57.9,133.9c9.7,23.2,2.9,50.2-13.8,68.3
	c-11.9,11.3-27,18.7-40.6,27.6c-25.4,14.4-50.4,30.3-75.2,45.8c-33.8,21.8-69.3,42.3-102.8,63.9c-28.3,17.6-62.2,44.8-94.2,20.7
	c-16.6-10.2-23.2-30.8-30.2-47.5c-9.7-18.9-17.2-39-25.9-57.9c-20-44.6-33.5-93.8-28.5-142.6c1-33.4,7.4-74,41.5-88.1
	c32.2-15.8,68.8-10.9,102.8-14.7c21.3-1.4,43.5-3.4,63.9-7.8c20-2,40.8-5.9,57-17.3c52.1-37.2,38.9-113.3,9.5-160.7
	c-21.2-38.3-39.7-78.4-53.6-119.2c-13-70.3,109.8-86.9,159-94.2c65.8-8.1,132.7,5.2,197,15.6c66.9,13.2,132.4,33.5,194.4,60.5
	c72.9,29.6,147.7,64.4,227.3,61.3c24.2-0.8,48.5-3.3,70.8-9.5c18.3-4.7,35.6-12.2,53.6-12.9c17-0.4,31.9,11.9,37.1,26.8
	c5.4,15.2,5.5,32.8,17.3,44.1c20.3,20.3,53,15.3,75.2,2.5c27.2-16.7,43.6-44.6,61.3-69.1c18.8-29.3,43.3-59.4,1.7-82.1
	c-28.6-16.6-34.3-45-19.8-72.6c44.4-69.5,86.6-140.2,127.9-210.8C1458-4,1493,8.7,1526,22.7c15.6,8.5,34.2,10.9,45.8,24.2
	C1592.9,69.1,1577.9,94.2,1564,115.1z"/>
<path vector-effect="non-scaling-stroke" class="st1" d="M1564,115.1c-41.3,61.9-80.3,126.2-119.2,190.1
	c-54.5,88.9-119,183.6-222.9,217.7c-40.1,15.9-82.9,25.7-124.4,37.2c-68.6,21-137.8,39.9-206.5,60.5c-31.8,9.3-64.3,18.5-95.9,28.5
	c-24.7,6.5-52.1,16.2-72.6-5.2c-8.9-9.1-13-22-20.7-32c-9.5-15.7-22.2-29.6-35.4-42.3c-70.4-63.7-164.7-104.6-248.8-39.7
	c-58.1,42.7-69,124.6-42.3,188.4c11,21,23.4,42.1,34.6,63.1c8.9,16.4,18.4,34.4,13.8,53.6c-6.8,42.8-54.3,57.8-86.4,78.6
	c-47.6,30.7-96.2,59.9-144.3,89.9"/>
<path vector-effect="non-scaling-stroke" class="st2" d="M192.8,1003.3c-23.7,13.1-47.1,37.1-76,32.8c-35.8-1.8-48-42.1-59.6-70
	c-30.6-62-57.5-129.9-47.5-200.4c4.1-73.5,49.2-86.3,114-87.3c37.9-0.4,75.7-6.5,113.2-12.1c66.4-10.2,85.4-79.8,64.8-136.5
	c-7.3-21.5-20.3-41.1-30.2-61.3c-11.9-23-22.6-47.6-32-71.7c-31.6-55.6,13.8-87.8,63.9-101.1c64.6-21.4,134.1-25.6,201.3-14.7
	c66,6.8,131.3,21.2,194.4,41.5c82,26.5,158.5,70.8,243.6,87.3"/>
<path vector-effect="non-scaling-stroke" class="st3" d="M942.7,409.7c60.2,12.1,121.2,2.1,178.8-16.4c18.3-3.8,37.5,4.4,45.8,21.6
	c5.9,12.2,5.7,27.1,12.1,38.9c12.5,23.9,44.3,27.6,67.4,19c31.6-12,51.5-40.5,70-67.4c11.9-20.8,33.7-40.8,30.2-66.5
	c-12.4-31.1-51.8-25.8-50.1-71.7c1.7-17.7,12.6-32.6,21.6-47.5c10.9-15.9,20.2-33.3,31.1-49.2c29.3-45.2,54.8-93.1,82.9-139.1
	c25.3-35.2,59.9-22.8,93.3-8.6c15,8.6,34,10.6,45.8,24.2c21.2,22.2,6.3,47.1-7.8,68.3"/>
</svg>
