<?xml version="1.0" encoding="utf-8"?>
<!-- Generator: Adobe Illustrator 25.2.3, SVG Export Plug-In . SVG Version: 6.00 Build 0)  -->
<svg version="1.1" id="Layer_1" xmlns="http://www.w3.org/2000/svg" xmlns:xlink="http://www.w3.org/1999/xlink" x="0px" y="0px"
	 viewBox="0 0 1460 920" style="enable-background:new 0 0 1460 920;" xml:space="preserve">
<style type="text/css">
	.st0{fill:none;stroke:#374151;stroke-width:8;}
	.st1{fill:none;stroke:#EF4444;stroke-width:2;}
	.st2{fill:none;stroke:#3B82F6;stroke-width:2;}
	.st3{fill:none;stroke:#FBBF24;stroke-width:2;}
</style>
<path vector-effect="non-scaling-stroke" class="st0" d="M1442,492.5c-11.9-85.3-23.3-170.8-35-256c-1.9-21.9-6.2-44.3-9-66
	c-2.3-26-5.1-52.7-12-78c-5.5-18.8-21.3-32.8-40-38c-10.6-1.9-21-3.9-31-8c-6.8-4.7-15.3-7.6-21-14c-10.3-8.2-20.2-19.9-34-22
	c-43.2-8.1-45.7,50.4-40,80c6.3,45.7,28.9,87.8,44,131c13.2,50.1,51.2,141-8,173c-24.3,13.6-53.2,11.9-80,8c-27.5-2.5-55.4-5.8-83-7
	c-88.8-7.6-179.7-4.8-267-25c-44.1-10.2-82.7-35.2-121-58c-34.9-22.7-71.5-44.6-107-66c-14-10-29.6-17.5-44-26
	c-14.6-9.4-30.4-18.7-48-18c-49.9,5.3-63.5,70.2-86,106c-11.4,23.5-25.3,69-59,54c-17.5-8.2-25.9-27.1-36-42
	c-8.9-14.9-21.1-27.2-32-40c-36.4-33.9-73.8-40-107,2c-18.2,28.5-31.5,60-48,89c-27.3,50.1-53.3,101-83,149c-9.3,15.3-18,31.2-27,46
	c-14.1,19.6-25.7,44.7-15,68c17,51.7,88,37.9,96,84c1.1,26,1.4,50.7,18,72c12.7,17.3,32,26.6,49,38c23.6,15.8,37.4,41.2,50,65
	c14.3,27.7,38,19.9,46-7c7.3-36.4,6.9-73.9,14-110c8.8-71.5,23.3-142.4,43-211c11.1-37.8,23.7-75.7,37-112c5.2-13,8.1-27.5,17-38
	c21.6-20.1,52.3-5.9,67,14.1c40.6,40.8,78.3,87.7,130,113c17.5,8,36,11.4,54,14c23.4,2.3,57.6,3.7,62,32c3.1,17.1-1.5,34.1,9,49
	c26.6,39.5,78.1,29,118,34c19.7,0,39.2,3.4,58,3c22.3,3.8,43.7-8.3,47-31.1c-3.4-45.5,29.5-70.4,72-64c20.5,0.3,41.1,0.6,60,6
	c28,10.8,25.4,44.1,42,64c17,23,47.7,28.7,74,29c39.3,2.1,78.6,3.1,117,6c29.6,0.5,60.2,8.4,88-2c43.1-17,65.4-61.7,70-105
	C1451.7,548.3,1447.3,520.6,1442,492.5z"/>
<path vector-effect="non-scaling-stroke" class="st1" d="M1442,492.5c-18.7-129.6-34.3-259.8-53-389c-4-24.7-22-45.2-47-50
	c-17.6-1.9-35-9.1-48-21c-48.5-48.1-80.2-15-76,44c4.6,53.2,31.1,101.1,48,151c11.7,47.3,44.7,125.9-2,162
	c-33.5,24.5-76.8,14.1-115,10c-39.9-2.7-80.1-5.9-120-8c-84.6-6.9-174.3-2.4-253-39c-47.3-22.5-90-53.6-135-80"/>
<path vector-effect="non-scaling-stroke" class="st2" d="M641,272.5c-31.5-18.6-61.9-38.8-94-56c-60.6-41.7-92.1,18-114,67
	c-7.6,14.3-14.3,29.7-22,44c-7.7,18-21.4,43.8-45,37c-17.3-5.1-26.7-21.8-36-36c-8.9-14.6-19-28.8-31-41c-31.4-36.2-76.5-51.3-110-8
	c-17.4,20.9-25.7,48-40,71c-30.4,57-60.3,114.8-94,170c-10.2,16.3-19,34.3-30,50c-9.4,15.6-18.1,32-16,51c14.1,67.4,83.2,47.1,99,92
	c3.6,21.4,0,44.4,11,64c15.2,33.6,52.3,41.3,75,67c18.4,16.6,24.3,41.8,40,60c8,9.7,24.7,7.3,31-3c11-17.8,10.3-39,13-59
	c1.7-25.6,5.9-51.4,9-77c11.6-77.9,27-155.1,51-230"/>
<path vector-effect="non-scaling-stroke" class="st3" d="M338,535.5c9.2-27.2,17.7-55.3,28-82c7.2-20.2,13.1-46,39-48
	c18.3-1,34.1,10.5,45,24c11.8,12.1,23.7,24.7,35,37c31,28.4,60.4,63.2,101,78c18.9,10.1,41.5,9.5,62,14c21.5-0.2,47,9.4,49,34
	c0.3,17.4-1,37.7,13,51c15.2,18.7,40.7,25.3,64,25c17.8,1.2,36.1,2,54,3c17.5,0.6,35.4,3.3,53,3c21.8,3.8,43.6-7.8,47-31
	c-3.4-44.9,28.7-70.5,72-64c20,0.3,40.8,0.5,60,6c27.9,10.8,25.2,43.5,42,64c16.7,22.7,47.3,28.8,74,29c38.9,2,78.1,3.1,117,6
	c29,0.4,59.9,8.4,88-2c42.6-16.8,65.4-61.1,70-105c0.6-28.5-3.6-57.1-9-85"/>
</svg>
