<?xml version="1.0" encoding="utf-8"?>
<!-- Generator: Adobe Illustrator 25.2.3, SVG Export Plug-In . SVG Version: 6.00 Build 0)  -->
<svg version="1.1" id="Layer_1" xmlns="http://www.w3.org/2000/svg" xmlns:xlink="http://www.w3.org/1999/xlink" x="0px" y="0px"
	 viewBox="0 0 1510 900" style="enable-background:new 0 0 1510 900;" xml:space="preserve">
<style type="text/css">
	.st0{fill:none;stroke:#374151;stroke-width:6.6462;stroke-miterlimit:3.3231;}
	.st1{fill:none;stroke:#EF4444;stroke-width:1.6615;stroke-miterlimit:3.3231;}
	.st2{fill:none;stroke:#3B82F6;stroke-width:1.6615;stroke-miterlimit:3.3231;}
	.st3{fill:none;stroke:#FBBF24;stroke-width:1.6615;stroke-miterlimit:3.3231;}
</style>
<path vector-effect="non-scaling-stroke" class="st0" d="M90.4,587.1C210.2,676,331.5,763.6,449.3,855.4
	c18.7,12.5,34.9,30,56.5,37.4c43.7,5.2,38.8-38,22.4-64.8c-30.8-52.8-49.4-104-10-158.7c30.1-42.6,86.6-51.5,123-87.2
	c26.9-20.7,36.3-55.1,58.2-79.8c14.3-18.4,37.8-27.7,53.2-44.9c27.5-23.6,26.7-62.7,44-92.2c20.6-37.9,71.2-53.5,108.8-31.6
	c58.6,31.6,97.4,30.8,137.1-26.6c15.6-22.1,41-34.4,66.5-22.4c14.8,6.3,25.1,19.1,39.9,24.9c33.1,11.1,67.3-1.7,98.9-10.8
	c61.8-17.1,90.4-49.7,128.8-97.2c34.3-44.2,69.7-87.5,104.7-130.4c9.1-11.1,18.7-22.1,22.4-35.7c2.1-16.2-9.1-28.3-24.9-29.1
	c-29.3,2.2-55.4,18.2-83.1,26.6c-60.8,21.6-122.6,40.1-183.6,59c-144,43-291.8,68.6-439.5,90.6c-51.6,7.5-103.3,14.2-154.5,20.8
	c-11.2,0.3-22.7,2.2-33.2,4.2c-14.7,0.5-32.8,5-38.2,19.9c-8.6,30,25,49.6,41.5,69c95.6,74.5,15.8,130.7-34.1,77.2
	c-20.4-21.8-25.6-55.6-49.8-73.9c-10.8-10.6-28.4-13.6-41.5-8.2c-22,15.7-9.5,46,5,61.5c15.3,18.7,32.8,35.5,44.9,55.7
	c23,38.2,16.9,86.2-10,119.6c-44.4,51.4-123.4,51.6-169.5,4.1c-41.4-36.3-56.4-108.8-109.7-127.1c-33.5-11.1-67.4,7.9-96.4,21.6
	c-22.4,10.5-44.4,20-65.6,30.7c-20.6,11.6-53.9,17.3-54.8,44.9c-1.8,23.5,19.7,38.5,35.8,50.7C58.4,564.6,73.8,576.4,90.4,587.1z"/>
<path vector-effect="non-scaling-stroke" class="st1" d="M90.4,587.1c94.1,69.6,188.8,139,282.5,209.4
	c28.5,22.9,58.7,44.4,87.2,67.3c20.3,13.2,43.9,40.9,69.8,24.9c35.6-29.2-32-94.6-32.4-134.6c-10.7-64.9,33.1-110,88.1-135.4
	c30.8-14.3,59.7-35.5,79.8-63.1c11.7-17.2,19.5-37.9,34.1-53.2c31.2-33,67.5-41.6,80.6-92.2c8.8-46.9,42.9-93.3,95.5-85.6
	c18.1-0.1,33.3,12.7,49.8,18.3"/>
<path vector-effect="non-scaling-stroke" class="st2" d="M925.3,342.8c25.7,13.5,59.2,17.6,83.9,0c17.8-13.4,29.8-32.9,44.9-49
	c13.6-12.7,35.1-18,52.3-10c17.3,5.5,28.4,22.9,46.5,26.6c38.3,11.7,91.4-10.2,127.9-24.1c34.1-13.6,59.8-40.9,82.2-69
	c20-25.1,41-50.1,60.6-75.6c15.4-19.7,32.2-39.1,47.4-59c13.3-16.6,40.8-40.5,29.9-63.1c-14.5-25.7-51-7-71.4,0.8
	c-23.4,8.4-46.8,17.7-70.6,24.9c-106.7,35.4-214.5,68.7-324.8,91.4c-112,24.1-225.5,40.6-339,56.5c-25.5,3-51.7,6.9-77.3,10
	c-19.2,1.6-39.1,3.2-57.3,9.1c-46.1,29.1,19.7,74,41.5,96.4"/>
<path vector-effect="non-scaling-stroke" class="st3" d="M602.1,308.7c16.9,16.9,38.3,41,28.2,66.5c-13.8,29.8-59.4,21.3-76.4-1.7
	c-18.5-19.8-24.4-49.4-44-69c-14.8-18.3-53.3-25.1-59,4.2c-2.5,19.8,9.3,37.1,22.4,50.7c15.4,18.9,33.9,36.2,44,59
	c24,48.9-0.1,114-49.8,136.2c-55.1,30.4-117,4.9-152.9-42.4c-26.7-35.3-43.3-82.1-83.1-104.7c-33.5-14.6-69.3,1.5-99.7,16.6
	c-21.2,11-44,19-64.8,30.7c-11.6,5.1-23.7,10.7-34.9,16.6c-9.6,3.5-18.4,9.9-23.3,19.1c-10.8,25,11,46.7,29.9,59.8
	c16.9,12.2,33.9,25.2,51.5,36.6"/>
</svg>
