<?xml version="1.0" encoding="utf-8"?>
<!-- Generator: Adobe Illustrator 25.2.3, SVG Export Plug-In . SVG Version: 6.00 Build 0)  -->
<svg version="1.1" id="Layer_1" xmlns="http://www.w3.org/2000/svg" xmlns:xlink="http://www.w3.org/1999/xlink" x="0px" y="0px"
	 viewBox="0 0 890 980" style="enable-background:new 0 0 890 980;" xml:space="preserve">
<style type="text/css">
	.st0{fill:none;stroke:#374151;stroke-width:5.0824;stroke-miterlimit:2.5412;}
	.st1{fill:none;stroke:#EF4444;stroke-width:1.2706;stroke-miterlimit:2.5412;}
	.st2{fill:none;stroke:#3B82F6;stroke-width:1.2706;stroke-miterlimit:2.5412;}
	.st3{fill:none;stroke:#FBBF24;stroke-width:1.2706;stroke-miterlimit:2.5412;}
</style>
<path vector-effect="non-scaling-stroke" class="st0" d="M184.7,705.8c68.1-54.7,140.2-104.9,208.4-159.5
	c23.9-14.4,24.5-37.1-5.1-43.2c-29.5-9-27.2-50.1-5.1-66.1c18.4-15.9,61.2-23.6,71.8,4.4c3.9,6.9-0.2,15.9,1.9,23.5
	c2.1,16.5,12.4,31.9,27.3,39.4c18.2,12,33.9,27.9,47.6,45.1c13.3,14.4,26.3,29.3,38.8,44.5c60.7,68.1,117.4,140.4,174.1,211.6
	c19.4,24.1,37.9,48.8,57.2,72.4c10.3,15.1,24.7,28,30.5,45.1c3.6,11.4-10.9,20.3-7.6,31.1c5.9,27.4,52.5,22.8,57.2-3.2
	c7.4-22.9-14.7-34.8-31.8-42.6c-10.2-5.8-19.1-13.8-27.3-21.6c-56.6-69.8-111.7-141.4-163.3-214.7c-26.8-40.1-55-79.4-82.6-118.2
	c-28.3-38.6-58.2-77.2-75-122c-22.5-77.1-31.9-158.6-28.6-238.2c2.9-43.5,8.8-86.7,17.2-129c1.7-17.5,10.3-34.2,7.6-51.5
	c-7.1-13.5-23.3-1.5-29.2,7c-22.3,28.2-19.6,91.3-23.5,127.1c-1.9,35.6-2.1,72,3.2,106.8c1.5,27.3,22.6,68.9-15.3,78.1
	c-11.9,2.1-23.7,2.5-34.9,3.8c-7.8,1.6-15,4.5-22.2,5.7c-22.1,6.1-45.8,4.5-66.1,14.6c-13.2,7.8-24.5,18.3-34.9,28.6
	c-12.3,11.6-24.2,23.5-31.8,38.1c-12.9,24.4-2.3,54.5-17.2,77.5c-8.4,16.2-25.6,27.5-42.6,31.1c-23,2.9-43.6,4.6-59.1,23.5
	c-18.1,24-10.2,44-12.1,69.9c-6.8,40.2-39.7,48.4-74.4,50.8c-18.7-0.9-40.4,13.2-26.6,32.4c7.8,12.7,20.9,20.3,31.1,29.9
	c17.4,16.4,33.7,26.4,57.8,24.1c17.4-2.1,30.3-13,42.6-23.5C157,727.4,171.3,717.6,184.7,705.8z"/>
<path vector-effect="non-scaling-stroke" class="st1" d="M184.7,705.8c47.7-37.5,96.1-74.3,144.8-110.5
	c18.4-14.2,38.1-27.6,55.9-42.6c8.2-7,19.1-12.7,23.5-22.9c5.4-8-0.7-18.1-8.3-22.2c-9-4-19.9-5.5-26.7-13.3
	c-13.3-14.2-8.8-38.5,3.2-52.1c16.9-16.7,43.7-25.2,66.1-14.6c26.3,16.7-0.6,40.9,29.2,68.6c9.5,8.9,22.1,13.8,31.1,23.5
	c21.9,20.6,40.9,44.7,61,67.3c58.6,66.3,113.5,135.7,169,204.6"/>
<path vector-effect="non-scaling-stroke" class="st2" d="M733.6,791.6c22.7,28.7,45,58,68,86.4c10.4,15.7,26.3,29.1,31.1,47.6
	c-1.9,17.6-18.7,25,0,41.9c31,19.3,68.4-17.3,40.7-45.7c-10.2-7.5-22.2-11.8-32.4-19.1c-20.5-14.6-34.7-35.7-50.2-55.3
	c-28.7-38-59.1-75.2-87-113.7c-36.5-47.9-69.1-99-104.2-148c-31.2-44.9-67.9-87.1-90.8-137.2c-18.3-40-22.8-84.8-29.9-127.7
	c-13.3-91.5-4.4-184.7,15.2-274.4c1.5-11,6.3-21.9,3.8-33c-6.9-13.4-23.2-1.8-29.2,7c-7.3,8.4-10.9,19.2-13.3,29.9
	c-5.8,26.8-7.6,54.5-8.9,82c-3.5,36-3.2,72.6,0,108.6"/>
<path vector-effect="non-scaling-stroke" class="st3" d="M446.4,240.8c2.3,16.5,4.7,33.3,7.6,49.6c6.8,24.6-5.6,43.3-31.8,43.2
	c-8.7,1.7-18,1.2-26.7,3.2c-11.5,3.1-23.1,6.2-34.9,8.3c-25.5,3.5-49.1,5.4-68.6,24.1c-22.3,20.8-49.8,41.8-55.3,73.7
	c-2.5,14.6,0,30.3-5.1,44.5c-4.9,18.8-20,34.4-38.1,41.3c-13.5,6.4-29.4,3.6-43.2,8.9c-21.5,6.9-37.7,28.2-38.1,50.8
	c-1.9,13.4,2.6,27.2-0.6,40.7c-8.8,37.4-40,44.6-73.7,47c-18.4-0.9-40.5,12.8-26.7,32.4c7.7,12.4,20.6,20.2,31.1,29.9
	c17.4,16.7,37.9,29.1,62.9,22.9c15.1-2,26.1-13.2,37.5-22.2c13.8-11.1,28.6-21.3,41.9-33"/>
</svg>
